<svg id="Calque_1" data-name="Calque 1" xmlns="http://www.w3.org/2000/svg" viewBox="0 0 301.51 47.17"><path d="M230.51 134.38c0 5.88-5.49 9.78-11.84 9.78h-11.14l4.47-14.94h11.9c5.06 0 6.64 2.55 6.64 5.15m92.12-12l-6.11 20.33a9.2 9.2 0 0 1-5.74 2.12c-4.24 0-6.89-2.22-6.89-5.83 0-9 10.74-15.23 18.74-16.62m111.39 0l-6.12 20.33a9.17 9.17 0 0 1-5.73 2.12c-4.24 0-6.89-2.22-6.89-5.83 0-9 10.74-15.23 18.74-16.62m-93.9-6.65c-15.18 0-26.16 1.21-35.89 4.87-10.84 4.14-17.49 12.29-17.49 20.62 0 9.4 12.29 11 19.32 11 8.43 0 13.73-.38 23.18-.38zm-47 .29c-3.37-.1-19.27-1-27.75 4.09-5.3 3.13-6.94 7-8.67 12.73l-5.68 19h15.51l6.17-20.57c2.84-9.49 15-9.11 18.55-9.11zm100.22 12.14c2.94-9.83-3.57-12.43-18.36-12.43-11.86 0-24.09 1.21-28.81 17.11l-5.64 19H356l6.7-22.35c1.11-3.67 3.13-7.66 9.25-7.66 6.89 0 7.13 2.17 5.93 6.26l-7.08 23.75h15.47zm97.37-11.61H478.4l3.28-11.28h-15.37l-10.85 35.95c-2.65 8.81 5.68 11.23 15.61 11.23a39.4 39.4 0 0 0 11.52-1.54l2.26-7.42a40.2 40.2 0 0 1-8.19.92c-5 0-5.83-2.7-4.09-8.58l3.9-13.25h12.43zm-36.14-11.27h-15.46l-3.33 11.08a75.11 75.11 0 0 0-20.19 4.24c-10.84 4.14-17.49 12.29-17.49 20.62 0 9.4 12.28 11 19.32 11 8.44 0 13.78-.38 23.23-.38zm-203.61 9c0-6-5.39-9-19.47-9h-28.23l-14.06 46.55h26.83c20.77 0 32-5.83 32-16.19 0-5-3.81-8.91-9.35-10.07 5.73-1.2 12.29-5 12.29-11.32m-16.81 1.59c0 4.62-6.26 7.17-15.14 7.17h-5.2l2.42-8c.81-2.8 3.61-3.23 6.16-3.23h6.31c3.76 0 5.45 1.69 5.45 4" transform="translate(-189.23 -105.27)" fill="#e4003e"/></svg>