<svg id="Publicdomainvectors.org" xmlns="http://www.w3.org/2000/svg" xmlns:xlink="http://www.w3.org/1999/xlink" viewBox="0 0 171.16 117.12"><defs><style>.cls-1,.cls-2,.cls-5,.cls-7,.cls-8,.cls-9{fill:none;}.cls-2{clip-path:url(#clip-path);}.cls-3{fill:#00247d;}.cls-4{clip-path:url(#clip-path-2);}.cls-5,.cls-8{stroke:#fff;}.cls-5,.cls-9{stroke-width:9.75px;}.cls-6{clip-path:url(#clip-path-3);}.cls-7,.cls-9{stroke:#cf142b;}.cls-7{stroke-width:6.5px;}.cls-8{stroke-width:16.25px;}.cls-10{fill:#fff;}.cls-11{fill:#cc142b;}</style><clipPath id="clip-path"><rect class="cls-1" x="-0.14" y="-0.25" width="84.29" height="56.83"/></clipPath><clipPath id="clip-path-2" transform="translate(2.73 4.09)"><rect class="cls-1" x="-0.01" y="-0.04" width="84.07" height="56.54"/></clipPath><clipPath id="clip-path-3" transform="translate(2.73 4.09)"><path class="cls-2" d="M42,28.23h42V56.5Zm0,0V56.5H0Zm0,0H0V0Zm0,0V0h42Z"/></clipPath></defs><title>new-zealand-flag</title><rect class="cls-3" x="2.77" y="4.05" width="168.39" height="113.08"/><path d="M0,0,84.06,56.5M84.06,0,0,56.5" transform="translate(2.73 4.09)"/><g class="cls-4"><path class="cls-5" d="M0,0,84.06,56.5M84.06,0,0,56.5" transform="translate(2.73 4.09)"/></g><g class="cls-6"><path d="M0,0,84.06,56.5M84.06,0,0,56.5" transform="translate(2.73 4.09)"/><path class="cls-7" d="M0,0,84.06,56.5M84.06,0,0,56.5" transform="translate(2.73 4.09)"/></g><path d="M42,0V56.5M0,28.23H84.06" transform="translate(2.73 4.09)"/><g class="cls-4"><path class="cls-8" d="M42,0V56.5M0,28.23H84.06" transform="translate(2.73 4.09)"/></g><path d="M42,0V56.5M0,28.23H84.06" transform="translate(2.73 4.09)"/><g class="cls-4"><path class="cls-9" d="M42,0V56.5M0,28.23H84.06" transform="translate(2.73 4.09)"/></g><polygon class="cls-10" points="129.18 14.02 133.2 26.37 122.69 18.73 135.68 18.73 125.17 26.37 129.18 14.02"/><polygon class="cls-11" points="129.18 16.41 131.79 24.43 124.96 19.47 133.4 19.47 126.58 24.43 129.18 16.41"/><polygon class="cls-10" points="129.18 63.9 133.63 77.58 121.98 69.13 136.38 69.13 124.73 77.58 129.18 63.9"/><polygon class="cls-11" points="129.18 66.29 132.22 75.65 124.26 69.86 134.1 69.86 126.14 75.65 129.18 66.29"/><polygon class="cls-10" points="145.89 29.28 149.47 40.29 140.1 33.49 151.68 33.49 142.31 40.29 145.89 29.28"/><polygon class="cls-11" points="145.89 31.67 148.06 38.36 142.38 34.23 149.41 34.23 143.72 38.36 145.89 31.67"/><polygon class="cls-10" points="109.69 33.63 113.7 45.98 103.19 38.35 116.18 38.35 105.67 45.98 109.69 33.63"/><polygon class="cls-11" points="109.69 36.02 112.3 44.04 105.47 39.09 113.91 39.09 107.08 44.04 109.69 36.02"/></svg>