<svg id="Countryflags.com" xmlns="http://www.w3.org/2000/svg" viewBox="0 0 169.5 113"><defs><style>.cls-1{fill:#ed2939}.cls-2{fill:#fff}</style></defs><path id="_9" data-name="9" class="cls-1" d="M0 0h169.5v56.5H0z"/><path id="_8" data-name="8" class="cls-2" d="M0 56.5h169.5V113H0z"/><path id="_7" data-name="7" class="cls-2" d="M57.78 28.08A21.11 21.11 0 1 1 36.66 7a21.11 21.11 0 0 1 21.12 21.08z"/><path id="_6" data-name="6" class="cls-1" d="M64.41 28.08a20 20 0 1 1-20-20 20 20 0 0 1 20 20z"/><path id="_5" data-name="5" class="cls-2" d="M39.27 28.58l-2.87-2.2-2.87 2.2L34.64 25l-2.88-2.19h3.55l1.09-3.51 1.09 3.55H41L38.17 25z"/><path id="_4" data-name="4" class="cls-2" d="M61.78 28.58l-2.87-2.2L56 28.59 57.15 25l-2.88-2.19h3.55l1.09-3.55 1.09 3.6h3.55L60.67 25z"/><path id="_3" data-name="3" class="cls-2" d="M50.54 20.23L47.67 18l-2.87 2.2 1.1-3.55L43 14.5h3.55l1.12-3.5 1.09 3.55h3.55l-2.88 2.19z"/><path id="_2" data-name="2" class="cls-2" d="M43.48 41.95l-2.87-2.2L37.75 42l1.1-3.55L36 36.21h3.55l1.09-3.55 1.09 3.55h3.55l-2.9 2.19z"/><path id="_1" data-name="1" class="cls-2" d="M57.57 41.95l-2.87-2.2L51.83 42l1.1-3.55-2.88-2.19h3.55l1.09-3.55 1.09 3.55h3.55l-2.87 2.14z"/></svg>