<svg id="SPAIN" xmlns="http://www.w3.org/2000/svg" viewBox="0 0 168.29 112.3"><defs><style>.cls-1{fill:#d52d40;}.cls-2{fill:#fbde00;}.cls-10,.cls-3{fill:none;stroke:#1d1d1b;}.cls-3{stroke-width:0px;}.cls-4{fill:#e4e5ea;}.cls-5{fill:#f9d400;}.cls-6{fill:#59b1e2;}.cls-7{fill:#fff;}.cls-8{fill:#5bb040;}.cls-9{fill:#00a4e5;}.cls-10{stroke-width:0px;}.cls-11{fill:#009844;}.cls-12{fill:#4bb6e7;}.cls-13{fill:#1d1d1b;}</style></defs><title>spain-flag</title><rect class="cls-1" width="168.29" height="26.14"/><rect class="cls-1" y="87.27" width="168.29" height="25.03"/><rect class="cls-2" y="26.14" width="168.29" height="61.12"/><path class="cls-1" d="M31.29,50c1.52,0,2.68-.91,2.68-1.6S32.81,47,31.29,47C30.14,47,29,47.6,29,48.36S30.14,50,31.29,50"/><path class="cls-3" d="M31.29,50c1.52,0,2.66-.9,2.66-1.6S32.81,47,31.29,47C30.14,47,29,47.6,29,48.36S30.14,50,31.29,50Z"/><path class="cls-1" d="M72.13,63.17c-.78.56-1.16,1.39-7.25,2l-.38-1.32c0-1,1.14-1,1.53-1s4.19-.2,5-.76l1.16,1"/><path class="cls-3" d="M72.11,63.17c-.76.56-1.14,1.39-7.24,2l-.38-1.32c0-1,1.14-1,1.53-1s4.19-.21,5-.77Z"/><rect class="cls-4" x="66.02" y="53.92" width="3.81" height="20.79"/><rect class="cls-3" x="66.02" y="53.92" width="3.81" height="20.79"/><rect class="cls-4" x="69.06" y="53.92" width="0.38" height="20.79"/><rect class="cls-3" x="69.06" y="53.92" width="0.38" height="20.79"/><rect class="cls-4" x="66.4" y="53.51" width="3.43" height="0.35"/><rect class="cls-4" x="66.4" y="74.65" width="3.43" height="0.34"/><rect class="cls-3" x="66.4" y="74.65" width="3.43" height="0.34"/><polyline class="cls-5" points="69.83 75.48 70.2 75.28 69.83 74.99 66.02 74.99 65.64 75.28 66.02 75.48 69.83 75.48"/><polygon class="cls-3" points="69.83 75.48 70.2 75.27 69.83 74.99 66.02 74.99 65.64 75.27 66.02 75.48 69.83 75.48"/><rect class="cls-5" x="65.25" y="76.25" width="5.72" height="1.6"/><rect class="cls-3" x="65.25" y="76.25" width="5.72" height="1.6"/><path class="cls-5" d="M69.83,75.48c0,.35.38.69,1.14.77H65.25a.93.93,0,0,0,.77-.77h3.81"/><path class="cls-3" d="M69.83,75.48c0,.35.38.69,1.14.77H65.25a.93.93,0,0,0,.77-.77Z"/><rect class="cls-4" x="66.4" y="53.51" width="3.43" height="0.35"/><rect class="cls-3" x="66.4" y="53.51" width="3.43" height="0.35"/><polyline class="cls-5" points="69.83 53.09 70.2 53.3 69.83 53.51 66.02 53.51 65.64 53.3 66.02 53.09 69.83 53.09"/><polygon class="cls-3" points="69.83 53.09 70.2 53.3 69.83 53.51 66.02 53.51 65.64 53.3 66.02 53.09 69.83 53.09"/><rect class="cls-5" x="65.25" y="50.73" width="5.72" height="1.61"/><rect class="cls-3" x="65.25" y="50.73" width="5.72" height="1.6"/><path class="cls-5" d="M69.83,53.09c0-.35.38-.69,1.14-.76H65.25a.91.91,0,0,1,.77.76h3.81"/><path class="cls-3" d="M69.83,53.09c0-.35.38-.69,1.14-.77H65.25a.93.93,0,0,1,.77.77Z"/><path class="cls-6" d="M71.73,78.61c-.76,0-1.14-.35-1.9-.35s-1.14.35-1.9.35a17.65,17.65,0,0,1-1.9-.35c-.77,0-1.14.35-1.9.35V78c.76,0,1.14-.35,1.9-.35a17.65,17.65,0,0,0,1.9.35c.76,0,1.14-.35,1.9-.35S71,78,71.73,78v.62"/><path class="cls-3" d="M71.73,78.61c-.76,0-1.14-.34-1.9-.34s-1.14.34-1.9.34a18.09,18.09,0,0,1-1.9-.34c-.77,0-1.14.34-1.9.34V78c.76,0,1.14-.35,1.9-.35a17.87,17.87,0,0,0,1.9.35c.76,0,1.14-.35,1.9-.35S71,78,71.73,78Z"/><path class="cls-4" d="M71.73,79.23c-.76,0-1.14-.35-1.9-.35s-1.14.35-1.9.35a17.65,17.65,0,0,1-1.9-.35c-.77,0-1.14.35-1.9.35v-.63c.76,0,1.14-.35,1.9-.35a17.65,17.65,0,0,0,1.9.35c.76,0,1.14-.35,1.9-.35s1.14.35,1.9.35v.63"/><path class="cls-3" d="M71.73,79.23c-.76,0-1.14-.35-1.9-.35s-1.14.35-1.9.35a17.65,17.65,0,0,1-1.9-.35c-.77,0-1.14.35-1.9.35v-.63c.76,0,1.14-.34,1.9-.34a18.09,18.09,0,0,0,1.9.34c.76,0,1.14-.34,1.9-.34s1.14.34,1.9.34Z"/><path class="cls-6" d="M71.73,79.86c-.76,0-1.14-.35-1.9-.35s-1.14.35-1.9.35a17.87,17.87,0,0,1-1.9-.35c-.77,0-1.14.35-1.9.35v-.63c.76,0,1.14-.35,1.9-.35a17.65,17.65,0,0,0,1.9.35c.76,0,1.14-.35,1.9-.35s1.14.35,1.9.35v.63"/><path class="cls-3" d="M71.73,79.86c-.76,0-1.14-.35-1.9-.35s-1.14.35-1.9.35a17.87,17.87,0,0,1-1.9-.35c-.77,0-1.14.35-1.9.35v-.63c.76,0,1.14-.35,1.9-.35a17.65,17.65,0,0,0,1.9.35c.76,0,1.14-.35,1.9-.35s1.14.35,1.9.35Z"/><path class="cls-4" d="M71.73,80.49c-.76,0-1.14-.35-1.9-.35s-1.14.35-1.9.35a17.65,17.65,0,0,1-1.9-.35c-.77,0-1.14.35-1.9.35v-.63c.76,0,1.14-.35,1.9-.35a17.87,17.87,0,0,0,1.9.35c.76,0,1.14-.35,1.9-.35s1.14.35,1.9.35v.63"/><path class="cls-3" d="M71.73,80.49c-.76,0-1.14-.35-1.9-.35s-1.14.35-1.9.35a17.65,17.65,0,0,1-1.9-.35c-.77,0-1.14.35-1.9.35v-.63c.76,0,1.14-.35,1.9-.35a17.87,17.87,0,0,0,1.9.35c.76,0,1.14-.35,1.9-.35s1.14.35,1.9.35Z"/><path class="cls-6" d="M71.73,81.12c-.76,0-1.14-.35-1.9-.35s-1.14.35-1.9.35a17.65,17.65,0,0,1-1.9-.35c-.77,0-1.14.35-1.9.35v-.63c.76,0,1.14-.35,1.9-.35a17.65,17.65,0,0,0,1.9.35c.76,0,1.14-.35,1.9-.35s1.14.35,1.9.35v.63"/><path class="cls-3" d="M71.73,81.12c-.76,0-1.14-.35-1.9-.35s-1.14.35-1.9.35a17.65,17.65,0,0,1-1.9-.35c-.77,0-1.14.35-1.9.35v-.63c.76,0,1.14-.35,1.9-.35a17.65,17.65,0,0,0,1.9.35c.76,0,1.14-.35,1.9-.35s1.14.35,1.9.35Z"/><path class="cls-1" d="M61.43,59.14c1.16-.27,6.87-1.66,11.08,1.81-.38.62-.78,1.6-.38,2.22a12.75,12.75,0,0,0-10.7-1.45V59.14"/><path class="cls-3" d="M61.43,59.14c1.14-.28,6.87-1.67,11.08,1.81-.4.63-.78,1.6-.4,2.22a12.71,12.71,0,0,0-10.68-1.46Z"/><path class="cls-1" d="M64.49,63.73c-.38,1-.38,1.53-.76,1.95.76.63,1.14,1.19,5.71,3.06a8.47,8.47,0,0,1,2.29,1.81,2.33,2.33,0,0,0-1.14-3.41c-1.53-.77-6.1-2.85-6.1-3.4"/><path class="cls-3" d="M64.49,63.73c-.38,1-.38,1.53-.76,1.95.76.63,1.14,1.18,5.71,3.06a8.38,8.38,0,0,1,2.29,1.81c.38-.9.78-2.57-1.14-3.41C69.06,66.37,64.49,64.28,64.49,63.73Z"/><path class="cls-1" d="M71.73,70.54c-.38.56-.38.91-.76,1.32L70.21,71,71,69.71a9,9,0,0,1,.76.83"/><path class="cls-3" d="M71.73,70.54c-.38.56-.38.9-.76,1.32l-.77-.9L71,69.71A9,9,0,0,1,71.73,70.54Z"/><path class="cls-1" d="M27.48,63.17c.38.56.76,1.39,6.87,2l.76-1.32c0-1-1.14-1-1.54-1-.76.07-4.57-.2-5.34-.76l-.76,1"/><path class="cls-3" d="M27.48,63.17c.38.56.76,1.39,6.87,2l.76-1.32c0-1-1.16-1-1.54-1-.76.07-4.57-.21-5.34-.77Z"/><rect class="cls-4" x="29.38" y="53.92" width="3.81" height="20.79"/><rect class="cls-3" x="29.38" y="53.92" width="3.81" height="20.79"/><rect class="cls-4" x="29.76" y="53.92" width="0.38" height="20.79"/><rect class="cls-3" x="29.76" y="53.92" width="0.38" height="20.79"/><rect class="cls-4" x="29.76" y="53.51" width="3.43" height="0.35"/><rect class="cls-4" x="29.76" y="74.65" width="3.43" height="0.34"/><rect class="cls-3" x="29.76" y="74.65" width="3.43" height="0.34"/><polyline class="cls-5" points="29.39 75.48 29 75.28 29.39 74.99 33.19 74.99 33.57 75.28 33.19 75.48 29.39 75.48"/><polygon class="cls-3" points="29.39 75.48 29 75.27 29.39 74.99 33.19 74.99 33.57 75.27 33.19 75.48 29.39 75.48"/><rect class="cls-5" x="28.62" y="76.25" width="5.73" height="1.6"/><rect class="cls-3" x="28.62" y="76.25" width="5.73" height="1.6"/><path class="cls-5" d="M29.38,75.48a.93.93,0,0,1-.77.77h5.73c-.78-.07-1.16-.42-1.16-.77H29.38"/><path class="cls-3" d="M29.38,75.48a.93.93,0,0,1-.77.77h5.73c-.78-.07-1.16-.42-1.16-.77Z"/><rect class="cls-4" x="29.76" y="53.51" width="3.43" height="0.35"/><rect class="cls-3" x="29.76" y="53.51" width="3.43" height="0.35"/><polyline class="cls-5" points="29.39 53.09 29 53.3 29.39 53.51 33.19 53.51 33.57 53.3 33.19 53.09 29.39 53.09"/><polygon class="cls-3" points="29.39 53.09 29 53.3 29.39 53.51 33.19 53.51 33.57 53.3 33.19 53.09 29.39 53.09"/><rect class="cls-5" x="28.62" y="50.73" width="5.73" height="1.61"/><rect class="cls-3" x="28.62" y="50.73" width="5.73" height="1.6"/><path class="cls-5" d="M29.38,53.09a.91.91,0,0,0-.77-.76h5.73c-.78.06-1.16.41-1.16.76H29.38"/><path class="cls-3" d="M29.38,53.09a.93.93,0,0,0-.77-.77h5.73c-.78.07-1.16.42-1.16.77Z"/><path class="cls-6" d="M27.48,78.61c.76,0,1.14-.35,1.9-.35s1.14.35,1.9.35a18.11,18.11,0,0,0,1.9-.35c.77,0,1.16.35,2.3.35V78c-1.14,0-1.52-.35-2.3-.35a18.11,18.11,0,0,1-1.9.35c-.76,0-1.15-.35-1.9-.35s-1.15.35-1.9.35v.62"/><path class="cls-3" d="M27.48,78.61c.76,0,1.14-.34,1.9-.34s1.14.34,1.9.34a18.57,18.57,0,0,0,1.9-.34c.76,0,1.16.34,2.3.34V78c-1.14,0-1.54-.35-2.3-.35a18.34,18.34,0,0,1-1.9.35c-.76,0-1.15-.35-1.9-.35s-1.15.35-1.9.35Z"/><path class="cls-4" d="M27.48,79.23c.76,0,1.14-.35,1.9-.35s1.14.35,1.9.35a18.11,18.11,0,0,0,1.9-.35c.77,0,1.16.35,2.3.35v-.63c-1.14,0-1.52-.35-2.3-.35a18.11,18.11,0,0,1-1.9.35c-.76,0-1.15-.35-1.9-.35s-1.15.35-1.9.35v.63"/><path class="cls-3" d="M27.48,79.23c.76,0,1.14-.35,1.9-.35s1.14.35,1.9.35a18.11,18.11,0,0,0,1.9-.35c.76,0,1.16.35,2.3.35v-.63c-1.14,0-1.54-.34-2.3-.34a18.57,18.57,0,0,1-1.9.34c-.76,0-1.15-.34-1.9-.34s-1.15.34-1.9.34Z"/><path class="cls-6" d="M27.48,79.86c.76,0,1.14-.35,1.9-.35s1.14.35,1.9.35a18.34,18.34,0,0,0,1.9-.35c.77,0,1.16.35,2.3.35v-.63c-1.14,0-1.52-.35-2.3-.35a18.11,18.11,0,0,1-1.9.35c-.76,0-1.15-.35-1.9-.35s-1.15.35-1.9.35v.63"/><path class="cls-3" d="M27.48,79.86c.76,0,1.14-.35,1.9-.35s1.14.35,1.9.35a18.34,18.34,0,0,0,1.9-.35c.76,0,1.16.35,2.3.35v-.63c-1.14,0-1.54-.35-2.3-.35a18.11,18.11,0,0,1-1.9.35c-.76,0-1.15-.35-1.9-.35s-1.15.35-1.9.35Z"/><path class="cls-4" d="M27.48,80.49c.76,0,1.14-.35,1.9-.35s1.14.35,1.9.35a18.11,18.11,0,0,0,1.9-.35c.77,0,1.16.35,2.3.35v-.63c-1.14,0-1.52-.35-2.3-.35a18.34,18.34,0,0,1-1.9.35c-.76,0-1.15-.35-1.9-.35s-1.15.35-1.9.35v.63"/><path class="cls-3" d="M27.48,80.49c.76,0,1.14-.35,1.9-.35s1.14.35,1.9.35a18.11,18.11,0,0,0,1.9-.35c.76,0,1.16.35,2.3.35v-.63c-1.14,0-1.54-.35-2.3-.35a18.34,18.34,0,0,1-1.9.35c-.76,0-1.15-.35-1.9-.35s-1.15.35-1.9.35Z"/><path class="cls-6" d="M27.48,81.12c.76,0,1.14-.35,1.9-.35s1.14.35,1.9.35a18.11,18.11,0,0,0,1.9-.35c.77,0,1.16.35,2.3.35v-.63c-1.14,0-1.52-.35-2.3-.35a18.11,18.11,0,0,1-1.9.35c-.76,0-1.15-.35-1.9-.35s-1.15.35-1.9.35v.63"/><path class="cls-3" d="M27.48,81.12c.76,0,1.14-.35,1.9-.35s1.14.35,1.9.35a18.11,18.11,0,0,0,1.9-.35c.76,0,1.16.35,2.3.35v-.63c-1.14,0-1.54-.35-2.3-.35a18.11,18.11,0,0,1-1.9.35c-.76,0-1.15-.35-1.9-.35s-1.15.35-1.9.35Z"/><path class="cls-1" d="M37.78,59.14c-1.14-.27-6.87-1.66-11.06,1.81a5.18,5.18,0,0,1,.76,2.22c1.14-.83,4.57-3.06,10.68-1.45l-.38-2.58"/><path class="cls-3" d="M37.78,59.14c-1.14-.28-6.87-1.67-11.06,1.81a5.22,5.22,0,0,1,.76,2.22c1.14-.83,4.57-3.06,10.68-1.46Z"/><path class="cls-1" d="M35.11,63.73c0,1,0,1.53.38,1.95-.38.63-1.14,1.19-5.35,3.06a6.44,6.44,0,0,0-2.66,1.81c-.38-.9-.76-2.57,1.14-3.41s6.11-2.85,6.49-3.4"/><path class="cls-3" d="M35.11,63.73c0,1,0,1.53.38,1.95-.38.63-1.14,1.18-5.35,3.06a6.4,6.4,0,0,0-2.66,1.81c-.38-.9-.76-2.57,1.14-3.41S34.73,64.28,35.11,63.73Z"/><path class="cls-1" d="M27.48,70.54c.38.56.76.91.76,1.32L29,71l-.38-1.24a2.33,2.33,0,0,0-1.14.83"/><path class="cls-3" d="M27.48,70.54c.38.56.76.9.76,1.32L29,71l-.38-1.25A2.33,2.33,0,0,0,27.48,70.54Z"/><path class="cls-4" d="M37.39,72.7c0,6.82,5.34,8.62,12.21,8.62s12.21-1.8,12.21-8.62V50.1H37.39V72.7"/><path class="cls-3" d="M37.39,72.7c0,6.82,5.34,8.62,12.21,8.62s12.21-1.8,12.21-8.62V50.1H37.39Z"/><path class="cls-3" d="M37.39,72.7c0,6.82,5.34,8.62,12.21,8.62s12.21-1.8,12.21-8.62V50.1H37.39Z"/><rect class="cls-1" x="37.39" y="50.1" width="12.21" height="14.53"/><rect class="cls-3" x="37.39" y="50.1" width="12.21" height="14.53"/><rect class="cls-4" x="49.61" y="50.1" width="12.21" height="14.53"/><rect class="cls-3" x="49.61" y="50.1" width="12.21" height="14.53"/><path class="cls-1" d="M49.61,73.47c0,3.39,2.67,6.74,6.11,6.74a4.51,4.51,0,0,0,1.9-.35,7.41,7.41,0,0,0,4.19-7V64.63H49.61v8.84"/><path class="cls-3" d="M49.61,73.46c0,3.41,2.67,6.75,6.11,6.75a4.58,4.58,0,0,0,1.9-.35,7.41,7.41,0,0,0,4.19-7V64.63H49.61Z"/><polyline class="cls-5" points="42.35 61.37 43.11 60.95 43.51 61.43 43.11 61.78 42.35 61.37"/><polygon class="cls-3" points="42.35 61.37 43.11 60.95 43.5 61.43 43.11 61.78 42.35 61.37"/><rect class="cls-5" x="43.51" y="62.55" width="1.14" height="0.49"/><rect class="cls-3" x="43.5" y="62.55" width="1.15" height="0.48"/><rect class="cls-5" x="44.27" y="62.06" width="0.77" height="0.98"/><rect class="cls-3" x="44.27" y="62.06" width="0.77" height="0.97"/><polyline class="cls-5" points="44.65 61.37 44.27 60.95 43.89 61.43 44.27 61.78 44.65 61.37"/><polygon class="cls-3" points="44.65 61.37 44.27 60.95 43.89 61.43 44.27 61.78 44.65 61.37"/><polyline class="cls-5" points="45.04 61.57 45.8 61.57 45.8 61.09 45.04 61.09 45.04 61.16 45.04 61.57"/><polygon class="cls-3" points="45.04 61.58 45.8 61.58 45.8 61.09 45.04 61.09 45.04 61.16 45.04 61.58"/><rect class="cls-5" x="40.45" y="56.64" width="0.76" height="0.56"/><rect class="cls-3" x="40.45" y="56.63" width="0.76" height="0.56"/><rect class="cls-5" x="40.83" y="56.64" width="1.14" height="0.56"/><rect class="cls-3" x="40.83" y="56.63" width="1.14" height="0.56"/><rect class="cls-5" x="41.97" y="56.64" width="1.14" height="0.56"/><rect class="cls-3" x="41.97" y="56.63" width="1.14" height="0.56"/><rect class="cls-5" x="43.11" y="56.64" width="1.16" height="0.56"/><rect class="cls-3" x="43.11" y="56.63" width="1.16" height="0.56"/><rect class="cls-5" x="44.27" y="56.64" width="1.14" height="0.56"/><rect class="cls-3" x="44.27" y="56.63" width="1.14" height="0.56"/><rect class="cls-5" x="45.41" y="56.64" width="1.14" height="0.56"/><rect class="cls-3" x="45.41" y="56.63" width="1.14" height="0.56"/><rect class="cls-5" x="46.17" y="56.64" width="0.76" height="0.56"/><rect class="cls-3" x="46.17" y="56.63" width="0.76" height="0.56"/><rect class="cls-5" x="40.45" y="56.22" width="2.28" height="0.48"/><rect class="cls-3" x="40.45" y="56.22" width="2.28" height="0.48"/><rect class="cls-5" x="42.35" y="56.22" width="2.3" height="0.48"/><rect class="cls-3" x="42.35" y="56.22" width="2.3" height="0.48"/><rect class="cls-5" x="44.65" y="56.22" width="2.29" height="0.48"/><rect class="cls-3" x="44.65" y="56.22" width="2.29" height="0.48"/><rect class="cls-5" x="40.45" y="55.73" width="0.76" height="0.42"/><rect class="cls-3" x="40.45" y="55.73" width="0.76" height="0.42"/><rect class="cls-5" x="40.45" y="55.32" width="0.76" height="0.42"/><rect class="cls-3" x="40.45" y="55.31" width="0.76" height="0.42"/><rect class="cls-5" x="40.83" y="55.73" width="0.76" height="0.42"/><rect class="cls-3" x="40.83" y="55.73" width="0.76" height="0.42"/><rect class="cls-5" x="40.83" y="55.32" width="0.76" height="0.42"/><rect class="cls-3" x="40.83" y="55.31" width="0.76" height="0.42"/><rect class="cls-5" x="41.59" y="55.73" width="0.77" height="0.42"/><rect class="cls-3" x="41.59" y="55.73" width="0.77" height="0.42"/><rect class="cls-5" x="41.59" y="55.32" width="0.77" height="0.42"/><rect class="cls-3" x="41.59" y="55.31" width="0.77" height="0.42"/><rect class="cls-5" x="42.35" y="55.73" width="0.38" height="0.42"/><rect class="cls-3" x="42.35" y="55.73" width="0.38" height="0.42"/><rect class="cls-5" x="42.35" y="55.32" width="1.16" height="0.42"/><rect class="cls-3" x="42.35" y="55.31" width="1.14" height="0.42"/><rect class="cls-5" x="41.59" y="56.15" width="0.77" height="0.14"/><rect class="cls-3" x="41.59" y="56.15" width="0.77" height="0.14"/><rect class="cls-5" x="41.59" y="55.73" width="0.38" height="0.42"/><rect class="cls-3" x="41.59" y="55.73" width="0.38" height="0.42"/><rect class="cls-5" x="41.21" y="54.9" width="1.14" height="0.41"/><rect class="cls-3" x="41.21" y="54.9" width="1.14" height="0.42"/><rect class="cls-5" x="41.21" y="54.9" width="0.76" height="0.41"/><rect class="cls-3" x="41.21" y="54.9" width="0.76" height="0.42"/><rect class="cls-5" x="41.21" y="54.48" width="1.14" height="0.42"/><rect class="cls-3" x="41.21" y="54.48" width="1.14" height="0.42"/><rect class="cls-5" x="41.97" y="54.07" width="0.76" height="0.48"/><rect class="cls-3" x="41.97" y="54.07" width="0.76" height="0.49"/><rect class="cls-5" x="40.83" y="54.07" width="0.76" height="0.48"/><rect class="cls-3" x="40.83" y="54.07" width="0.76" height="0.49"/><polyline class="cls-5" points="40.83 54.06 40.83 53.3 41.21 53.3 41.21 53.72 41.59 53.72 41.59 53.3 41.97 53.3 41.97 53.72 42.35 53.72 42.35 53.3 42.73 53.3 42.73 54.06 40.83 54.06"/><polygon class="cls-3" points="40.83 54.06 40.83 53.3 41.21 53.3 41.21 53.72 41.59 53.72 41.59 53.3 41.97 53.3 41.97 53.72 42.35 53.72 42.35 53.3 42.73 53.3 42.73 54.06 40.83 54.06"/><rect class="cls-5" x="46.17" y="55.73" width="0.76" height="0.42"/><rect class="cls-3" x="46.17" y="55.73" width="0.76" height="0.42"/><rect class="cls-5" x="46.17" y="55.32" width="0.76" height="0.42"/><rect class="cls-3" x="46.17" y="55.31" width="0.76" height="0.42"/><rect class="cls-5" x="45.8" y="55.73" width="0.76" height="0.42"/><rect class="cls-3" x="45.8" y="55.73" width="0.76" height="0.42"/><rect class="cls-5" x="45.8" y="55.32" width="0.76" height="0.42"/><rect class="cls-3" x="45.8" y="55.31" width="0.76" height="0.42"/><rect class="cls-5" x="45.04" y="55.73" width="0.76" height="0.42"/><rect class="cls-3" x="45.04" y="55.73" width="0.76" height="0.42"/><rect class="cls-5" x="45.04" y="55.32" width="0.76" height="0.42"/><rect class="cls-3" x="45.04" y="55.31" width="0.76" height="0.42"/><rect class="cls-5" x="45.04" y="56.15" width="0.76" height="0.14"/><rect class="cls-3" x="45.04" y="56.15" width="0.76" height="0.14"/><rect class="cls-5" x="45.41" y="55.73" width="0.38" height="0.42"/><rect class="cls-3" x="45.41" y="55.73" width="0.38" height="0.42"/><rect class="cls-5" x="44.65" y="54.9" width="1.15" height="0.41"/><rect class="cls-3" x="44.65" y="54.9" width="1.15" height="0.42"/><rect class="cls-5" x="45.41" y="54.9" width="0.38" height="0.41"/><rect class="cls-3" x="45.41" y="54.9" width="0.38" height="0.42"/><rect class="cls-5" x="44.65" y="54.48" width="1.15" height="0.42"/><rect class="cls-3" x="44.65" y="54.48" width="1.15" height="0.42"/><rect class="cls-5" x="44.27" y="54.07" width="0.77" height="0.48"/><rect class="cls-3" x="44.27" y="54.07" width="0.77" height="0.49"/><rect class="cls-5" x="45.41" y="54.07" width="0.76" height="0.48"/><rect class="cls-3" x="45.41" y="54.07" width="0.76" height="0.49"/><polyline class="cls-5" points="46.17 54.06 46.17 53.3 45.8 53.3 45.8 53.72 45.41 53.72 45.41 53.3 45.04 53.3 45.04 53.72 45.04 53.3 44.27 53.3 44.27 54.06 46.17 54.06"/><polygon class="cls-3" points="46.17 54.06 46.17 53.3 45.8 53.3 45.8 53.72 45.41 53.72 45.41 53.3 45.04 53.3 45.04 53.72 45.04 53.3 44.27 53.3 44.27 54.06 46.17 54.06"/><rect class="cls-5" x="42.73" y="55.73" width="0.38" height="0.42"/><rect class="cls-3" x="42.73" y="55.73" width="0.38" height="0.42"/><rect class="cls-5" x="44.65" y="55.73" width="0.39" height="0.42"/><rect class="cls-3" x="44.65" y="55.73" width="0.39" height="0.42"/><rect class="cls-5" x="43.89" y="55.32" width="1.14" height="0.42"/><rect class="cls-3" x="43.89" y="55.31" width="1.14" height="0.42"/><rect class="cls-5" x="43.89" y="55.73" width="0.38" height="0.42"/><rect class="cls-3" x="43.89" y="55.73" width="0.38" height="0.42"/><rect class="cls-5" x="43.51" y="54.9" width="0.38" height="0.41"/><rect class="cls-3" x="43.5" y="54.9" width="0.4" height="0.42"/><rect class="cls-5" x="43.11" y="54.9" width="0.4" height="0.41"/><rect class="cls-3" x="43.11" y="54.9" width="0.38" height="0.42"/><rect class="cls-5" x="43.11" y="55.32" width="0.78" height="0.42"/><rect class="cls-3" x="43.11" y="55.31" width="0.78" height="0.42"/><rect class="cls-5" x="43.11" y="55.73" width="0.78" height="0.42"/><rect class="cls-3" x="43.11" y="55.73" width="0.78" height="0.42"/><rect class="cls-5" x="43.51" y="55.73" width="0.38" height="0.42"/><rect class="cls-3" x="43.5" y="55.73" width="0.4" height="0.42"/><rect class="cls-5" x="43.11" y="54.48" width="1.16" height="0.42"/><rect class="cls-3" x="43.11" y="54.48" width="1.16" height="0.42"/><rect class="cls-5" x="43.51" y="54.13" width="0.38" height="0.42"/><rect class="cls-3" x="43.5" y="54.13" width="0.4" height="0.42"/><rect class="cls-5" x="43.11" y="54.13" width="0.4" height="0.42"/><rect class="cls-3" x="43.11" y="54.13" width="0.38" height="0.42"/><rect class="cls-5" x="43.11" y="53.72" width="1.16" height="0.42"/><rect class="cls-3" x="43.11" y="53.72" width="1.16" height="0.42"/><rect class="cls-5" x="43.51" y="53.37" width="0.38" height="0.42"/><rect class="cls-3" x="43.5" y="53.37" width="0.4" height="0.42"/><rect class="cls-5" x="43.11" y="53.37" width="0.4" height="0.42"/><rect class="cls-3" x="43.11" y="53.37" width="0.38" height="0.42"/><rect class="cls-5" x="43.11" y="52.95" width="1.16" height="0.42"/><rect class="cls-3" x="43.11" y="52.95" width="1.16" height="0.42"/><rect class="cls-5" x="42.35" y="52.54" width="1.16" height="0.42"/><rect class="cls-3" x="42.35" y="52.54" width="1.14" height="0.41"/><rect class="cls-5" x="43.51" y="52.54" width="1.14" height="0.42"/><rect class="cls-3" x="43.5" y="52.54" width="1.15" height="0.41"/><polyline class="cls-5" points="42.35 52.61 42.35 51.84 42.73 51.84 42.73 52.26 43.51 52.26 43.51 51.84 43.89 51.84 43.89 52.26 44.27 52.26 44.27 51.84 44.65 51.84 44.65 52.61 42.35 52.61"/><polygon class="cls-3" points="42.35 52.6 42.35 51.84 42.73 51.84 42.73 52.26 43.5 52.26 43.5 51.84 43.89 51.84 43.89 52.26 44.27 52.26 44.27 51.84 44.65 51.84 44.65 52.6 42.35 52.6"/><rect class="cls-5" x="40.83" y="57.19" width="0.76" height="0.49"/><rect class="cls-3" x="40.83" y="57.2" width="0.76" height="0.48"/><rect class="cls-5" x="41.21" y="57.19" width="1.14" height="0.49"/><rect class="cls-3" x="41.21" y="57.2" width="1.14" height="0.48"/><rect class="cls-5" x="42.35" y="57.19" width="1.16" height="0.49"/><rect class="cls-3" x="42.35" y="57.2" width="1.14" height="0.48"/><rect class="cls-5" x="43.51" y="57.19" width="1.14" height="0.49"/><rect class="cls-3" x="43.5" y="57.2" width="1.15" height="0.48"/><rect class="cls-5" x="44.65" y="57.19" width="1.9" height="0.49"/><rect class="cls-3" x="44.65" y="57.2" width="1.9" height="0.48"/><rect class="cls-5" x="40.83" y="57.68" width="2.29" height="0.49"/><rect class="cls-3" x="40.83" y="57.68" width="2.29" height="0.49"/><rect class="cls-5" x="42.73" y="57.68" width="1.16" height="0.49"/><rect class="cls-3" x="42.73" y="57.68" width="1.16" height="0.49"/><rect class="cls-5" x="43.89" y="57.68" width="2.28" height="0.49"/><rect class="cls-3" x="43.89" y="57.68" width="2.28" height="0.49"/><rect class="cls-5" x="43.51" y="58.17" width="3.04" height="0.48"/><rect class="cls-3" x="43.5" y="58.17" width="3.06" height="0.48"/><rect class="cls-5" x="40.83" y="58.17" width="2.68" height="0.48"/><rect class="cls-3" x="40.83" y="58.17" width="2.67" height="0.48"/><rect class="cls-5" x="40.83" y="58.65" width="2.29" height="0.48"/><rect class="cls-3" x="40.83" y="58.65" width="2.29" height="0.48"/><rect class="cls-5" x="42.73" y="58.65" width="1.16" height="0.48"/><rect class="cls-3" x="42.73" y="58.65" width="1.16" height="0.48"/><rect class="cls-5" x="43.89" y="58.65" width="2.66" height="0.48"/><rect class="cls-3" x="43.89" y="58.65" width="2.66" height="0.48"/><rect class="cls-5" x="43.51" y="59.14" width="3.04" height="0.49"/><rect class="cls-3" x="43.5" y="59.14" width="3.06" height="0.49"/><rect class="cls-5" x="40.83" y="59.14" width="2.68" height="0.49"/><rect class="cls-3" x="40.83" y="59.14" width="2.67" height="0.49"/><rect class="cls-5" x="40.83" y="59.63" width="1.14" height="0.49"/><rect class="cls-3" x="40.83" y="59.63" width="1.14" height="0.49"/><rect class="cls-5" x="41.97" y="59.63" width="0.76" height="0.49"/><rect class="cls-3" x="41.97" y="59.63" width="0.76" height="0.49"/><rect class="cls-5" x="42.73" y="59.63" width="1.16" height="0.49"/><rect class="cls-3" x="42.73" y="59.63" width="1.16" height="0.49"/><rect class="cls-5" x="43.89" y="59.63" width="1.14" height="0.49"/><rect class="cls-3" x="43.89" y="59.63" width="1.14" height="0.49"/><rect class="cls-5" x="45.04" y="59.63" width="1.14" height="0.49"/><rect class="cls-3" x="45.04" y="59.63" width="1.14" height="0.49"/><rect class="cls-5" x="46.17" y="59.63" width="0.38" height="0.49"/><rect class="cls-3" x="46.17" y="59.63" width="0.38" height="0.49"/><rect class="cls-5" x="41.59" y="60.12" width="0.77" height="0.49"/><rect class="cls-3" x="41.59" y="60.12" width="0.77" height="0.49"/><rect class="cls-5" x="40.83" y="60.12" width="0.76" height="0.49"/><rect class="cls-3" x="40.83" y="60.12" width="0.76" height="0.49"/><rect class="cls-5" x="42.35" y="60.12" width="1.16" height="0.49"/><rect class="cls-3" x="42.35" y="60.12" width="1.14" height="0.49"/><rect class="cls-5" x="43.51" y="60.12" width="1.14" height="0.49"/><rect class="cls-3" x="43.5" y="60.12" width="1.15" height="0.49"/><rect class="cls-5" x="44.65" y="60.12" width="0.77" height="0.49"/><rect class="cls-3" x="44.65" y="60.12" width="0.77" height="0.49"/><rect class="cls-5" x="45.41" y="60.12" width="1.14" height="0.49"/><rect class="cls-3" x="45.41" y="60.12" width="1.14" height="0.49"/><rect class="cls-5" x="40.83" y="60.6" width="1.53" height="0.48"/><rect class="cls-3" x="40.83" y="60.6" width="1.53" height="0.48"/><rect class="cls-5" x="39.69" y="61.08" width="1.52" height="0.49"/><rect class="cls-3" x="39.69" y="61.09" width="1.52" height="0.49"/><rect class="cls-5" x="39.69" y="61.58" width="1.14" height="0.48"/><rect class="cls-3" x="39.69" y="61.58" width="1.14" height="0.48"/><rect class="cls-5" x="41.21" y="61.58" width="1.52" height="0.48"/><rect class="cls-3" x="41.21" y="61.58" width="1.52" height="0.48"/><rect class="cls-5" x="39.69" y="62.06" width="0.76" height="0.48"/><rect class="cls-3" x="39.69" y="62.06" width="0.76" height="0.49"/><rect class="cls-5" x="40.45" y="62.06" width="1.14" height="0.48"/><rect class="cls-3" x="40.45" y="62.06" width="1.14" height="0.49"/><rect class="cls-5" x="41.59" y="62.06" width="1.14" height="0.48"/><rect class="cls-3" x="41.59" y="62.06" width="1.14" height="0.49"/><rect class="cls-5" x="39.69" y="62.55" width="1.14" height="0.49"/><rect class="cls-3" x="39.69" y="62.55" width="1.14" height="0.48"/><rect class="cls-5" x="41.21" y="62.55" width="1.14" height="0.49"/><rect class="cls-3" x="41.21" y="62.55" width="1.14" height="0.48"/><rect class="cls-5" x="42.35" y="62.55" width="1.16" height="0.49"/><rect class="cls-3" x="42.35" y="62.55" width="1.14" height="0.48"/><rect class="cls-5" x="42.35" y="62.06" width="0.76" height="0.98"/><rect class="cls-3" x="42.35" y="62.06" width="0.76" height="0.97"/><polyline class="cls-5" points="42.73 62.06 43.11 61.78 42.35 61.16 41.97 62.06 42.73 62.06"/><polygon class="cls-3" points="42.73 62.06 43.11 61.78 42.35 61.16 41.97 62.06 42.73 62.06"/><polyline class="cls-5" points="42.35 61.37 42.35 61.09 41.97 61.09 41.97 60.6 42.73 60.6 43.11 60.95 42.35 61.37"/><polygon class="cls-3" points="42.35 61.37 42.35 61.09 41.97 61.09 41.97 60.6 42.73 60.6 43.11 60.95 42.35 61.37"/><rect class="cls-5" x="45.04" y="60.6" width="1.14" height="0.48"/><rect class="cls-3" x="45.04" y="60.6" width="1.14" height="0.48"/><rect class="cls-5" x="45.8" y="61.08" width="1.52" height="0.49"/><rect class="cls-3" x="45.8" y="61.09" width="1.52" height="0.49"/><rect class="cls-5" x="46.17" y="61.58" width="1.14" height="0.48"/><rect class="cls-3" x="46.17" y="61.58" width="1.14" height="0.48"/><rect class="cls-5" x="44.65" y="61.58" width="1.53" height="0.48"/><rect class="cls-3" x="44.65" y="61.58" width="1.53" height="0.48"/><rect class="cls-5" x="46.55" y="62.06" width="0.77" height="0.48"/><rect class="cls-3" x="46.55" y="62.06" width="0.77" height="0.49"/><rect class="cls-5" x="45.8" y="62.06" width="1.14" height="0.48"/><rect class="cls-3" x="45.8" y="62.06" width="1.14" height="0.49"/><rect class="cls-5" x="44.65" y="62.06" width="1.15" height="0.48"/><rect class="cls-3" x="44.65" y="62.06" width="1.15" height="0.49"/><rect class="cls-5" x="46.17" y="62.55" width="1.14" height="0.49"/><rect class="cls-3" x="46.17" y="62.55" width="1.14" height="0.48"/><rect class="cls-5" x="45.04" y="62.55" width="1.14" height="0.49"/><rect class="cls-3" x="45.04" y="62.55" width="1.14" height="0.48"/><polyline class="cls-5" points="44.27 62.06 44.27 61.78 45.04 61.16 45.41 62.06 44.27 62.06"/><polygon class="cls-3" points="44.27 62.06 44.27 61.78 45.04 61.16 45.41 62.06 44.27 62.06"/><polyline class="cls-5" points="44.65 61.37 45.04 61.09 45.04 60.6 44.27 60.6 44.27 60.95 44.65 61.37"/><polygon class="cls-3" points="44.65 61.37 45.04 61.09 45.04 60.6 44.27 60.6 44.27 60.95 44.65 61.37"/><polyline class="cls-5" points="43.89 61.43 44.27 60.53 42.73 60.53 43.51 61.43 43.89 61.43"/><polygon class="cls-3" points="43.89 61.43 44.27 60.53 42.73 60.53 43.5 61.43 43.89 61.43"/><polyline class="cls-5" points="44.27 63.04 44.27 62.06 44.27 61.78 43.89 61.43 43.51 61.43 43.11 61.78 42.73 62.06 42.73 63.04 44.27 63.04"/><polygon class="cls-3" points="44.27 63.03 44.27 62.06 44.27 61.78 43.89 61.43 43.5 61.43 43.11 61.78 42.73 62.06 42.73 63.03 44.27 63.03"/><polyline class="cls-5" points="41.59 61.09 41.59 61.57 41.97 61.57 42.35 61.16 42.35 61.09 41.59 61.09"/><polygon class="cls-3" points="41.59 61.09 41.59 61.58 41.97 61.58 42.35 61.16 42.35 61.09 41.59 61.09"/><path class="cls-5" d="M42.73,58.58a.76.76,0,0,0-1.52,0v1h1.52v-1"/><path class="cls-3" d="M42.73,58.58a.76.76,0,0,0-1.52,0v1h1.52Z"/><path class="cls-5" d="M42.35,58.58c0-.28,0-.42-.38-.42,0,0-.38.13-.38.42v.83h.77v-.83"/><path class="cls-3" d="M42.35,58.58c0-.28,0-.42-.38-.42,0,0-.38.13-.38.42v.83h.77Z"/><path class="cls-5" d="M45.8,58.58a.79.79,0,0,0-.76-.69c-.39,0-.39.35-.39.69v1H45.8v-1"/><path class="cls-3" d="M45.8,58.58a.79.79,0,0,0-.76-.69c-.39,0-.39.35-.39.69v1H45.8Z"/><path class="cls-5" d="M45.41,58.58c0-.28,0-.42-.38-.42,0,0-.39.13-.39.42v.83h.77v-.83"/><path class="cls-3" d="M45.41,58.58c0-.28,0-.42-.38-.42,0,0-.39.13-.39.42v.83h.77Z"/><path class="cls-7" d="M49.61,79.79c.76-.06,1.52-.56,1.52-1.11a1.26,1.26,0,0,0-.76-1v-.42s-.38,0-.38.21c0-.21-.38-.28-.38-.34h0c-.38.06-.38.13-.38.34,0-.21-.38-.21-.38-.21v.42a1.25,1.25,0,0,0-.77,1,1.12,1.12,0,0,0,1.14,1.11v1.39h.38V79.79"/><path class="cls-3" d="M49.61,79.79c.76-.07,1.52-.56,1.52-1.11a1.26,1.26,0,0,0-.76-1v-.42s-.38,0-.38.21c0-.21-.38-.28-.38-.34h0c-.38.06-.38.13-.38.34,0-.21-.38-.21-.38-.21v.42a1.25,1.25,0,0,0-.77,1,1.12,1.12,0,0,0,1.14,1.11v1.39h.38Z"/><path class="cls-1" d="M49.22,78.61c0-.48,0-.9.38-.9s.38.42.38.9,0,.91-.38.91-.38-.42-.38-.91"/><path class="cls-3" d="M49.22,78.61c0-.48,0-.9.38-.9s.38.42.38.9,0,.91-.38.91S49.22,79.1,49.22,78.61Z"/><path class="cls-8" d="M46.94,79.65a2.53,2.53,0,0,1,2.29,1c-.77.21-2.29-.2-2.29-1"/><path class="cls-3" d="M46.94,79.65a2.53,2.53,0,0,1,2.29,1C48.46,80.9,46.94,80.49,46.94,79.65Z"/><path class="cls-8" d="M52.27,79.65a3.19,3.19,0,0,0-2.67,1,2.4,2.4,0,0,0,2.67-1"/><path class="cls-3" d="M52.27,79.65a3.18,3.18,0,0,0-2.67,1A2.41,2.41,0,0,0,52.27,79.65Z"/><path class="cls-5" d="M51.89,52.74c.38-.07.77,0,.77.35l-.38.21a.48.48,0,0,0-.38-.56"/><path class="cls-3" d="M51.89,52.74c.38-.07.77,0,.77.35l-.38.21A.48.48,0,0,0,51.89,52.74Z"/><path class="cls-5" d="M51.13,53.37c.38-.15.38-.35.76.13v.21c-.38-.14-.76-.28-.76-.34"/><path class="cls-3" d="M51.13,53.37c.38-.14.38-.34.76.14v.21C51.51,53.58,51.13,53.44,51.13,53.37Z"/><path class="cls-5" d="M51.51,54.35c0,.06-.38.2-.38.62.38-.13.38-.27.76-.21l-.38-.41"/><path class="cls-3" d="M51.51,54.34c0,.07-.38.21-.38.63.38-.14.38-.28.76-.21Z"/><path class="cls-5" d="M52.65,57c-.77-.28-1.14-.06-1.14.63.38-.22.76-.35.76-.22l.38-.41"/><path class="cls-3" d="M52.65,57c-.77-.28-1.14-.06-1.14.63.38-.21.76-.35.76-.21Z"/><path class="cls-5" d="M52.27,57.89a.73.73,0,0,0-.76.69c.38,0,.76-.21.76-.35v-.35"/><path class="cls-3" d="M52.27,57.89a.73.73,0,0,0-.76.69c.38,0,.76-.21.76-.35Z"/><path class="cls-5" d="M52.65,58.52v.69c.4-.28.4-.34.4-.77l-.4.08"/><path class="cls-3" d="M52.65,58.52v.7c.38-.28.38-.35.38-.77Z"/><path class="cls-5" d="M54.19,60.46c-.38-.07-.77,0-.77.28.38,0,.77.07.77.21v-.49"/><path class="cls-3" d="M54.19,60.46c-.38-.07-.77,0-.77.28.38,0,.77.07.77.21Z"/><path class="cls-5" d="M54.19,61.09c-.38.07-1.14.21-.77.91,0-.21.38-.49.77-.42v-.48"/><path class="cls-3" d="M54.19,61.09c-.38.07-1.16.21-.77.91,0-.21.38-.49.77-.42Z"/><path class="cls-5" d="M54.19,61.72c0,.28,0,.76.38,1v-.77l-.38-.2"/><path class="cls-3" d="M54.19,61.71c0,.29,0,.77.38,1v-.77Z"/><path class="cls-5" d="M58,62.2a1.08,1.08,0,0,0-1.14.7A3.66,3.66,0,0,1,58,62.61V62.2"/><path class="cls-3" d="M58,62.2a1.08,1.08,0,0,0-1.14.7A3.33,3.33,0,0,1,58,62.62Z"/><path class="cls-5" d="M58,62.76a1.18,1.18,0,0,0-.77,1.11A2.19,2.19,0,0,0,58,63.1v-.34"/><path class="cls-3" d="M58,62.75a1.21,1.21,0,0,0-.77,1.12A2.15,2.15,0,0,0,58,63.1Z"/><path class="cls-5" d="M58.38,63.17a.79.79,0,0,0,.76.91c0-.28-.38-.77-.38-.91h-.38"/><path class="cls-3" d="M58.38,63.17a.79.79,0,0,0,.76.9c0-.28-.38-.76-.38-.9Z"/><path class="cls-1" d="M52.27,53.09h.38l.4.49c-.4.14-.4.42,0,.56s3,1.32,3,1.32l-1.9,1.24c0-.2-.38-.62-.38-.69s-.38-.27-.76-.27c0-.08-.4-.28-.4-.49a.7.7,0,0,0-.77-.49c0,.07-.38-.06-.38-.21-.38-.2,0-.35,0-.35l.38-.28v-.42l.38-.13v-.28"/><path class="cls-3" d="M52.27,53.09h.38l.38.49c-.38.14-.38.41,0,.55s3.06,1.32,3.06,1.32l-1.9,1.25c0-.21-.38-.62-.38-.69s-.38-.28-.78-.28c0-.07-.38-.28-.38-.49a.7.7,0,0,0-.77-.49c0,.07-.38-.07-.38-.21-.38-.21,0-.35,0-.35l.38-.28v-.42l.38-.14Z"/><path class="cls-1" d="M57.62,58.65a5.7,5.7,0,0,1-1.53.28h-.38c-.38-.06-.76,0-.76.48.38.49.38.62.38.76a.46.46,0,0,1,.38.49c-.38.13-.76.13-.76-.07-.38-.14-.38-.28-.76-.21v.35c0,.21,0,.21-.38.35a.49.49,0,0,0,.38.48v.28c0,.06.38.21.38.06.38-.2.38-.41.76-.35,0,.07.76.07.76.07.38-.07.38-.28.38-.56v-.76c0-.15,0-.42.38.28l.76-2"/><path class="cls-3" d="M57.62,58.65a5.7,5.7,0,0,1-1.53.28h-.38c-.38-.07-.76,0-.76.48.38.49.38.62.38.77a.46.46,0,0,1,.38.48c-.38.14-.76.14-.76-.06-.38-.14-.38-.29-.76-.21v.35c0,.21,0,.21-.38.35a.5.5,0,0,0,.38.49v.28c0,.07.38.21.38.07.38-.21.38-.42.76-.35,0,.07.76.07.76.07.38-.07.38-.28.38-.56v-.77c0-.13,0-.41.38.29Z"/><path class="cls-1" d="M57.24,61c0,.07,0,.27.38.35s.76.21.76.42,0,.41-.38.41c0,.06-.38.13-.38.28v.42c0,.14.38.35.38.35.38,0,.38.07.38.14h.76v-.48c0-.14-.38-.63,0-.77a.59.59,0,0,1,.38-.63c0-.14,0-.7-.38-.76s-.76-.28-.76-.63,0-.83.38-.9,1.14-.2,1.14-.62c.38-.49,0-1.32,0-1.67s-.76-1.39-.38-1.95a3.74,3.74,0,0,1,.38-1.25c.38-.07.38-.28.38-.62v-.35c.38-.15,0-.42,0-.28-.38.14-.38.21-.38.14-.38-.07-.38-.07-.76.21v1a1,1,0,0,1-.38,1,2.79,2.79,0,0,0,.38,1.46c0,.63.76,1.67.38,2,0,.35-.76.7-1.52.35-.38-.35-.77-.69-1.14-2.64l-2.29-.2a3.93,3.93,0,0,0-1.14,1.18l-.77.06-.38-.14v.48c0,.15.38.35,0,.35,0,0-.38,0-.38.28,0,0,.38.14.38.35s0,.28.38.28.4-.15.4-.28a.88.88,0,0,1,.76-.48s.38-.14.38-.21l.38-.14c.38.06.38-.08.38-.35a1.15,1.15,0,0,0,.76.9,15.48,15.48,0,0,0,1.52,1v.7c0,.28-.38.77,0,1.25"/><path class="cls-3" d="M57.24,61c0,.06,0,.28.38.35s.76.21.76.41,0,.42-.38.42c0,.07-.38.14-.38.28v.42c0,.14.38.35.38.35.38,0,.38.07.38.14h.76v-.49c0-.14-.38-.63,0-.77a.6.6,0,0,1,.38-.63c0-.14,0-.7-.38-.77s-.76-.28-.76-.63,0-.83.38-.9,1.14-.2,1.14-.62c.38-.49,0-1.32,0-1.67s-.76-1.39-.38-1.95a3.78,3.78,0,0,1,.38-1.25c.38-.07.38-.28.38-.62v-.35c.38-.14,0-.42,0-.28-.38.14-.38.21-.38.14-.38-.07-.38-.07-.76.21v1a1,1,0,0,1-.38,1,2.79,2.79,0,0,0,.38,1.46c0,.63.76,1.67.38,2,0,.35-.76.7-1.52.35-.38-.35-.77-.69-1.14-2.64l-2.29-.21a3.94,3.94,0,0,0-1.14,1.18l-.77.06-.38-.14v.48c0,.14.38.35,0,.35,0,0-.38,0-.38.28,0,0,.38.13.38.34s0,.28.38.28.38-.14.38-.28a.92.92,0,0,1,.78-.48s.38-.14.38-.2l.38-.14c.38.07.38-.07.38-.35a1.16,1.16,0,0,0,.76.9,17.45,17.45,0,0,0,1.52,1v.7C57.24,60,56.86,60.46,57.24,61Z"/><path class="cls-1" d="M56.09,52.53c0-.2.38-.48.77-.35s1.14.56,1.14,1,0,1.25.38,1.53a1.62,1.62,0,0,1-.76-.28c.38.21.38.83.76,1-.38-.07-.76.07-.38.56-.38-.35-.77-.7-.77.41l-.38-.21c0,.28,0,.35-.38.41l-.38-.35-.38.35v-.76a5.88,5.88,0,0,1-.76.35v-.76c-.38-.07-.38-.21-.76-.14,0-.49.76-.56,1.14-.49s.38-.35,0-.35v-.2l.38-.15a.38.38,0,0,0,.38-.41c0-.41-.38-.41-.38-.35-.38.07-.38-.07-.38-.21V53c0-.07-.38-.42,0-.35l.76-.08"/><path class="cls-3" d="M56.09,52.54c0-.21.38-.49.77-.35s1.14.56,1.14,1,0,1.25.38,1.53a1.73,1.73,0,0,1-.76-.28c.38.21.38.83.76,1-.38-.07-.76.07-.38.56-.38-.35-.77-.7-.77.42l-.38-.21c0,.28,0,.35-.38.42l-.38-.35-.38.35v-.77a5.88,5.88,0,0,1-.76.35v-.76c-.38-.07-.38-.21-.76-.14,0-.48.76-.55,1.14-.48s.38-.35,0-.35v-.21l.38-.14a.38.38,0,0,0,.38-.42c0-.42-.38-.42-.38-.35-.38.07-.38-.07-.38-.21v-.28c0-.06-.38-.41,0-.35Z"/><path class="cls-1" d="M56.09,53.85c-.38-.14-.76-.28-.76-.35-.38,0-.76-.21-.76-.35s-.38-.42-.76-.42c0,.21.38.63.76,1,0,.28.38.21.76.14,0-.06.38-.06.76,0"/><path class="cls-3" d="M56.09,53.86c-.38-.14-.76-.28-.76-.35-.38,0-.76-.21-.76-.35s-.38-.42-.76-.42c0,.21.38.62.76,1,0,.28.38.21.76.14C55.33,53.79,55.72,53.79,56.09,53.86Z"/><path class="cls-5" d="M58,53.23l-1.53-1c.38-.28,0-.63,0-.91h.38v.56l.38-.35.38.2-.38.28v.14l.38-.27.38.2-.38.28.38.14v-.2l.38.2-.38.21v.06l.76-.06V53c-.38,0-.76,0-.76.2"/><path class="cls-3" d="M58,53.23l-1.53-1c.38-.28,0-.63,0-.9h.38v.56l.38-.35.38.21-.38.28v.14l.38-.28.38.21-.38.28.38.14v-.21l.38.21-.38.21v.07l.76-.07V53C58.38,53,58,53,58,53.23Z"/><rect class="cls-5" x="59.53" y="69.37" width="0.38" height="1.8"/><rect class="cls-3" x="59.53" y="69.37" width="0.38" height="1.8"/><rect class="cls-5" x="57.24" y="67.07" width="1.53" height="0.41"/><rect class="cls-3" x="57.24" y="67.07" width="1.53" height="0.42"/><rect class="cls-5" x="51.51" y="68.81" width="0.38" height="0.56"/><rect class="cls-3" x="51.51" y="68.8" width="0.38" height="0.56"/><rect class="cls-5" x="51.51" y="68.81" width="0.38" height="0.56"/><rect class="cls-3" x="51.51" y="68.8" width="0.38" height="0.56"/><rect class="cls-5" x="59.53" y="68.81" width="0.38" height="0.56"/><rect class="cls-3" x="59.53" y="68.8" width="0.38" height="0.56"/><rect class="cls-5" x="59.53" y="68.81" width="0.38" height="0.56"/><rect class="cls-3" x="59.53" y="68.8" width="0.38" height="0.56"/><rect class="cls-5" x="59.14" y="68.32" width="0.38" height="1.46"/><rect class="cls-3" x="59.14" y="68.32" width="0.38" height="1.46"/><rect class="cls-5" x="59.9" y="68.32" width="0.38" height="1.46"/><rect class="cls-3" x="59.9" y="68.32" width="0.38" height="1.46"/><rect class="cls-5" x="59.53" y="67.13" width="0.38" height="1.67"/><rect class="cls-3" x="59.53" y="67.13" width="0.38" height="1.67"/><polyline class="cls-5" points="55.72 72.08 56.09 71.8 55.72 71.52 55.33 71.8 55.72 72.08"/><polygon class="cls-3" points="55.72 72.08 56.09 71.79 55.72 71.52 55.33 71.79 55.72 72.08"/><path class="cls-5" d="M55,71.8a.76.76,0,0,1,1.52,0,.76.76,0,0,1-1.52,0"/><path class="cls-3" d="M55,71.79a.76.76,0,0,1,1.52,0,.76.76,0,0,1-1.52,0Z"/><rect class="cls-5" x="55.72" y="74.99" width="0.38" height="0.63"/><rect class="cls-3" x="55.72" y="74.99" width="0.38" height="0.63"/><rect class="cls-5" x="55.72" y="74.99" width="0.38" height="0.63"/><rect class="cls-3" x="55.72" y="74.99" width="0.38" height="0.63"/><rect class="cls-5" x="54.96" y="74.58" width="0.38" height="1.46"/><rect class="cls-3" x="54.96" y="74.58" width="0.38" height="1.46"/><rect class="cls-5" x="56.09" y="74.58" width="0.38" height="1.46"/><rect class="cls-3" x="56.09" y="74.58" width="0.38" height="1.46"/><rect class="cls-5" x="55.72" y="72.35" width="0.38" height="2.64"/><rect class="cls-3" x="55.72" y="72.35" width="0.38" height="2.64"/><rect class="cls-5" x="55.72" y="75.62" width="0.38" height="2.22"/><rect class="cls-3" x="55.72" y="75.62" width="0.38" height="2.22"/><rect class="cls-5" x="55.72" y="68.46" width="0.38" height="0.55"/><rect class="cls-3" x="55.72" y="68.46" width="0.38" height="0.56"/><rect class="cls-5" x="55.72" y="68.46" width="0.38" height="0.55"/><rect class="cls-3" x="55.72" y="68.46" width="0.38" height="0.56"/><rect class="cls-5" x="54.96" y="67.97" width="0.38" height="1.46"/><rect class="cls-3" x="54.96" y="67.97" width="0.38" height="1.46"/><rect class="cls-5" x="56.09" y="67.97" width="0.38" height="1.46"/><rect class="cls-3" x="56.09" y="67.97" width="0.38" height="1.46"/><rect class="cls-5" x="55.72" y="69.02" width="0.38" height="2.08"/><rect class="cls-3" x="55.72" y="69.02" width="0.38" height="2.08"/><rect class="cls-5" x="55.72" y="67.13" width="0.38" height="1.32"/><rect class="cls-3" x="55.72" y="67.13" width="0.38" height="1.32"/><rect class="cls-5" x="55.72" y="68.46" width="0.38" height="0.55"/><rect class="cls-3" x="55.72" y="68.46" width="0.38" height="0.56"/><rect class="cls-5" x="55.72" y="68.46" width="0.38" height="0.55"/><rect class="cls-3" x="55.72" y="68.46" width="0.38" height="0.56"/><polyline class="cls-5" points="54.19 69.5 53.81 69.08 53.43 69.37 53.81 69.85 54.19 69.5"/><polygon class="cls-3" points="54.19 69.5 53.81 69.08 53.43 69.37 53.81 69.85 54.19 69.5"/><polyline class="cls-5" points="54.19 69.5 53.81 69.08 53.43 69.37 53.81 69.85 54.19 69.5"/><polygon class="cls-3" points="54.19 69.5 53.81 69.08 53.43 69.37 53.81 69.85 54.19 69.5"/><polyline class="cls-5" points="54.19 70.12 53.05 69.08 52.65 69.3 53.81 70.41 54.19 70.12"/><polygon class="cls-3" points="54.19 70.12 53.03 69.08 52.65 69.29 53.81 70.41 54.19 70.12"/><polyline class="cls-5" points="54.57 69.57 53.81 68.46 53.43 68.73 54.57 69.85 54.57 69.57"/><polygon class="cls-3" points="54.57 69.57 53.81 68.46 53.43 68.73 54.57 69.85 54.57 69.57"/><polyline class="cls-5" points="55.72 71.17 54.19 69.5 53.81 69.85 55.33 71.45 55.72 71.17"/><polygon class="cls-3" points="55.72 71.17 54.19 69.5 53.81 69.85 55.33 71.45 55.72 71.17"/><polyline class="cls-5" points="52.27 67.35 53.81 69.08 53.43 69.37 51.89 67.7 52.27 67.35"/><polygon class="cls-3" points="52.27 67.35 53.81 69.08 53.43 69.37 51.89 67.7 52.27 67.35"/><polyline class="cls-5" points="57.24 69.5 57.62 69.08 58 69.37 57.62 69.85 57.24 69.5"/><polygon class="cls-3" points="57.24 69.5 57.62 69.08 58 69.37 57.62 69.85 57.24 69.5"/><polyline class="cls-5" points="57.24 69.5 57.62 69.08 58 69.37 57.62 69.85 57.24 69.5"/><polygon class="cls-3" points="57.24 69.5 57.62 69.08 58 69.37 57.62 69.85 57.24 69.5"/><polyline class="cls-5" points="57.62 70.12 58.38 69.08 58.76 69.3 57.62 70.41 57.62 70.12"/><polygon class="cls-3" points="57.62 70.12 58.38 69.08 58.76 69.29 57.62 70.41 57.62 70.12"/><polyline class="cls-5" points="56.86 69.57 57.62 68.46 58 68.73 57.24 69.85 56.86 69.57"/><polygon class="cls-3" points="56.86 69.57 57.62 68.46 58 68.73 57.24 69.85 56.86 69.57"/><polyline class="cls-5" points="56.09 71.17 57.24 69.5 57.62 69.85 56.48 71.45 56.09 71.17"/><polygon class="cls-3" points="56.09 71.17 57.24 69.5 57.62 69.85 56.48 71.45 56.09 71.17"/><polyline class="cls-5" points="59.52 67.13 57.62 69.08 58 69.37 59.52 67.41 59.52 67.13"/><polygon class="cls-3" points="59.52 67.13 57.62 69.08 58 69.37 59.52 67.41 59.52 67.13"/><rect class="cls-5" x="53.43" y="73.75" width="0.77" height="0.77"/><rect class="cls-3" x="53.43" y="73.75" width="0.77" height="0.76"/><rect class="cls-5" x="53.43" y="73.75" width="0.77" height="0.77"/><rect class="cls-3" x="53.43" y="73.75" width="0.77" height="0.76"/><polyline class="cls-5" points="54.19 73.47 53.05 74.51 52.65 74.24 53.81 73.19 54.19 73.47"/><polygon class="cls-3" points="54.19 73.46 53.03 74.51 52.65 74.23 53.81 73.18 54.19 73.46"/><polyline class="cls-5" points="54.57 74.02 53.81 75.06 53.43 74.86 54.57 73.74 54.57 74.02"/><polygon class="cls-3" points="54.57 74.02 53.81 75.06 53.43 74.85 54.57 73.75 54.57 74.02"/><polyline class="cls-5" points="55.72 72.42 54.19 74.02 53.81 73.74 55.33 72.15 55.72 72.42"/><polygon class="cls-3" points="55.72 72.42 54.19 74.02 53.81 73.75 55.33 72.14 55.72 72.42"/><polyline class="cls-5" points="52.27 76.17 53.81 74.51 53.43 74.24 51.89 75.9 52.27 76.17"/><polygon class="cls-3" points="52.27 76.17 53.81 74.51 53.43 74.23 51.89 75.9 52.27 76.17"/><polyline class="cls-5" points="57.24 74.02 57.62 74.51 58 74.24 57.62 73.74 57.24 74.02"/><polygon class="cls-3" points="57.24 74.02 57.62 74.51 58 74.23 57.62 73.75 57.24 74.02"/><polyline class="cls-5" points="57.24 74.02 57.62 74.51 58 74.24 57.62 73.74 57.24 74.02"/><polygon class="cls-3" points="57.24 74.02 57.62 74.51 58 74.23 57.62 73.75 57.24 74.02"/><polyline class="cls-5" points="57.62 73.47 58.38 74.51 58.76 74.24 57.62 73.19 57.62 73.47"/><polygon class="cls-3" points="57.62 73.46 58.38 74.51 58.76 74.23 57.62 73.18 57.62 73.46"/><polyline class="cls-5" points="56.86 74.02 57.62 75.06 58 74.86 57.24 73.74 56.86 74.02"/><polygon class="cls-3" points="56.86 74.02 57.62 75.06 58 74.85 57.24 73.75 56.86 74.02"/><polyline class="cls-5" points="56.09 72.42 57.24 74.02 57.62 73.74 56.48 72.15 56.09 72.42"/><polygon class="cls-3" points="56.09 72.42 57.24 74.02 57.62 73.75 56.48 72.14 56.09 72.42"/><polyline class="cls-5" points="59.52 76.45 57.62 74.51 58 74.24 59.52 76.11 59.52 76.45"/><polygon class="cls-3" points="59.52 76.46 57.62 74.51 58 74.23 59.52 76.11 59.52 76.46"/><rect class="cls-5" x="53.81" y="66.58" width="0.76" height="0.49"/><rect class="cls-3" x="53.81" y="66.58" width="0.76" height="0.49"/><rect class="cls-5" x="53.81" y="66.58" width="0.76" height="0.49"/><rect class="cls-3" x="53.81" y="66.58" width="0.76" height="0.49"/><rect class="cls-5" x="53.43" y="67.07" width="1.53" height="0.41"/><rect class="cls-3" x="53.43" y="67.07" width="1.53" height="0.42"/><rect class="cls-5" x="53.43" y="66.17" width="1.53" height="0.42"/><rect class="cls-3" x="53.43" y="66.17" width="1.53" height="0.42"/><rect class="cls-5" x="54.19" y="66.58" width="1.9" height="0.49"/><rect class="cls-3" x="54.19" y="66.58" width="1.9" height="0.49"/><rect class="cls-5" x="51.89" y="66.58" width="1.54" height="0.49"/><rect class="cls-3" x="51.89" y="66.58" width="1.54" height="0.49"/><rect class="cls-5" x="57.62" y="66.58" width="0.76" height="0.49"/><rect class="cls-3" x="57.62" y="66.58" width="0.76" height="0.49"/><rect class="cls-5" x="57.62" y="66.58" width="0.76" height="0.49"/><rect class="cls-3" x="57.62" y="66.58" width="0.76" height="0.49"/><rect class="cls-5" x="57.24" y="66.17" width="1.53" height="0.42"/><rect class="cls-3" x="57.24" y="66.17" width="1.53" height="0.42"/><rect class="cls-5" x="58" y="66.58" width="1.9" height="0.49"/><rect class="cls-3" x="58" y="66.58" width="1.9" height="0.49"/><rect class="cls-5" x="55.72" y="66.58" width="1.52" height="0.49"/><rect class="cls-3" x="55.72" y="66.58" width="1.52" height="0.49"/><path class="cls-5" d="M59.14,66.86a.77.77,0,1,1,.76.7.74.74,0,0,1-.76-.7"/><path class="cls-3" d="M59.14,66.86a.77.77,0,1,1,.76.7A.73.73,0,0,1,59.14,66.86Z"/><path class="cls-5" d="M55,66.86a.76.76,0,0,1,1.52,0,.76.76,0,0,1-1.52,0"/><path class="cls-3" d="M55,66.86a.76.76,0,0,1,1.52,0,.76.76,0,0,1-1.52,0Z"/><rect class="cls-1" x="59.53" y="66.58" width="0.38" height="0.55"/><rect class="cls-3" x="59.53" y="66.58" width="0.38" height="0.55"/><rect class="cls-5" x="51.89" y="68.32" width="0.38" height="1.46"/><rect class="cls-3" x="51.89" y="68.32" width="0.38" height="1.46"/><rect class="cls-5" x="51.13" y="68.32" width="0.38" height="1.46"/><rect class="cls-3" x="51.13" y="68.32" width="0.38" height="1.46"/><rect class="cls-5" x="51.51" y="69.37" width="0.38" height="1.8"/><rect class="cls-3" x="51.51" y="69.37" width="0.38" height="1.8"/><rect class="cls-5" x="51.51" y="67.13" width="0.38" height="1.67"/><rect class="cls-3" x="51.51" y="67.13" width="0.38" height="1.67"/><path class="cls-5" d="M51.13,66.86c0-.35,0-.63.38-.63a.67.67,0,1,1,0,1.33c-.38,0-.38-.28-.38-.7"/><path class="cls-3" d="M51.13,66.86c0-.35,0-.63.38-.63a.67.67,0,1,1,0,1.32C51.13,67.55,51.13,67.28,51.13,66.86Z"/><rect class="cls-1" x="51.51" y="66.58" width="0.38" height="0.55"/><rect class="cls-3" x="51.51" y="66.58" width="0.38" height="0.55"/><rect class="cls-1" x="55.33" y="66.58" width="0.38" height="0.55"/><rect class="cls-3" x="55.33" y="66.58" width="0.38" height="0.55"/><rect class="cls-5" x="53.43" y="71.38" width="0.77" height="0.48"/><rect class="cls-3" x="53.43" y="71.38" width="0.77" height="0.48"/><rect class="cls-5" x="53.43" y="71.38" width="0.77" height="0.48"/><rect class="cls-3" x="53.43" y="71.38" width="0.77" height="0.48"/><rect class="cls-5" x="53.05" y="71.87" width="1.52" height="0.41"/><rect class="cls-3" x="53.03" y="71.87" width="1.54" height="0.41"/><rect class="cls-5" x="53.05" y="70.97" width="1.52" height="0.42"/><rect class="cls-3" x="53.03" y="70.96" width="1.54" height="0.42"/><rect class="cls-5" x="54.19" y="71.38" width="1.9" height="0.48"/><rect class="cls-3" x="54.19" y="71.38" width="1.9" height="0.48"/><rect class="cls-5" x="51.89" y="71.38" width="1.54" height="0.48"/><rect class="cls-3" x="51.89" y="71.38" width="1.54" height="0.48"/><rect class="cls-5" x="57.62" y="71.38" width="0.76" height="0.48"/><rect class="cls-3" x="57.62" y="71.38" width="0.76" height="0.48"/><rect class="cls-5" x="57.62" y="71.38" width="0.76" height="0.48"/><rect class="cls-3" x="57.62" y="71.38" width="0.76" height="0.48"/><rect class="cls-5" x="56.86" y="71.87" width="1.52" height="0.41"/><rect class="cls-3" x="56.86" y="71.87" width="1.52" height="0.41"/><rect class="cls-5" x="56.86" y="70.97" width="1.52" height="0.42"/><rect class="cls-3" x="56.86" y="70.96" width="1.52" height="0.42"/><rect class="cls-5" x="55.72" y="71.38" width="1.9" height="0.48"/><rect class="cls-3" x="55.72" y="71.38" width="1.9" height="0.48"/><rect class="cls-5" x="58" y="71.38" width="1.52" height="0.48"/><rect class="cls-3" x="58" y="71.38" width="1.52" height="0.48"/><rect class="cls-5" x="59.53" y="73.46" width="0.38" height="0.55"/><rect class="cls-3" x="59.53" y="73.46" width="0.38" height="0.56"/><rect class="cls-5" x="59.53" y="73.46" width="0.38" height="0.55"/><rect class="cls-3" x="59.53" y="73.46" width="0.38" height="0.56"/><rect class="cls-5" x="59.14" y="72.97" width="0.38" height="1.46"/><rect class="cls-3" x="59.14" y="72.98" width="0.38" height="1.46"/><rect class="cls-5" x="59.9" y="72.97" width="0.38" height="1.46"/><rect class="cls-3" x="59.9" y="72.98" width="0.38" height="1.46"/><rect class="cls-5" x="59.53" y="71.8" width="0.38" height="1.67"/><rect class="cls-3" x="59.53" y="71.79" width="0.38" height="1.67"/><rect class="cls-5" x="51.89" y="72.97" width="0.38" height="1.46"/><rect class="cls-3" x="51.89" y="72.98" width="0.38" height="1.46"/><rect class="cls-5" x="51.13" y="72.97" width="0.38" height="1.46"/><rect class="cls-3" x="51.13" y="72.98" width="0.38" height="1.46"/><rect class="cls-5" x="51.51" y="71.8" width="0.38" height="1.67"/><rect class="cls-3" x="51.51" y="71.79" width="0.38" height="1.67"/><path class="cls-5" d="M59.9,74a4.2,4.2,0,1,1-8.39,0h.38a3.94,3.94,0,0,0,3.83,3.83A3.68,3.68,0,0,0,59.53,74h.38"/><path class="cls-3" d="M59.9,74a4.2,4.2,0,1,1-8.39,0h.38a3.93,3.93,0,0,0,3.83,3.82A3.68,3.68,0,0,0,59.53,74Z"/><rect class="cls-5" x="51.51" y="73.46" width="0.38" height="0.55"/><rect class="cls-3" x="51.51" y="73.46" width="0.38" height="0.56"/><polyline class="cls-5" points="54.19 77.64 53.43 77.09 53.43 76.73 54.57 77.21 54.19 77.64"/><polygon class="cls-3" points="54.19 77.64 53.43 77.09 53.43 76.73 54.57 77.22 54.19 77.64"/><polyline class="cls-5" points="53.81 78.41 53.05 77.84 53.05 77.5 54.19 77.99 53.81 78.41"/><polygon class="cls-3" points="53.81 78.41 53.03 77.84 53.03 77.5 54.19 77.98 53.81 78.41"/><polyline class="cls-5" points="54.19 77.5 53.43 77.21 53.43 77.56 53.81 77.84 54.19 77.5"/><polygon class="cls-3" points="54.19 77.5 53.43 77.22 53.43 77.56 53.81 77.84 54.19 77.5"/><rect class="cls-5" x="56.86" y="76.74" width="1.14" height="0.9"/><rect class="cls-3" x="56.86" y="76.74" width="1.14" height="0.9"/><polyline class="cls-5" points="57.62 78.41 58.76 77.84 58.38 77.5 57.62 77.99 57.62 78.41"/><polygon class="cls-3" points="57.62 78.41 58.76 77.84 58.38 77.5 57.62 77.98 57.62 78.41"/><polyline class="cls-5" points="58 77.56 57.62 77.84 57.24 77.5 58 77.21 58 77.56"/><polygon class="cls-3" points="58 77.56 57.62 77.84 57.24 77.5 58 77.22 58 77.56"/><path class="cls-5" d="M55,71.8a.76.76,0,0,1,1.52,0,.76.76,0,0,1-1.52,0"/><path class="cls-3" d="M55,71.79a.76.76,0,0,1,1.52,0,.76.76,0,0,1-1.52,0Z"/><path class="cls-5" d="M55,78.12a.78.78,0,1,1,.76.62.73.73,0,0,1-.76-.62"/><path class="cls-3" d="M55,78.12a.78.78,0,1,1,.76.62A.73.73,0,0,1,55,78.12Z"/><polyline class="cls-9" points="55.72 71.52 56.09 71.8 55.72 72.08 55.33 71.8 55.72 71.52"/><polygon class="cls-3" points="55.72 71.52 56.09 71.79 55.72 72.08 55.33 71.79 55.72 71.52"/><path class="cls-5" d="M51.51,72.28c-.38,0-.38-.28-.38-.69s0-.63.38-.63a.67.67,0,1,1,0,1.32"/><path class="cls-3" d="M51.51,72.28c-.38,0-.38-.28-.38-.69s0-.63.38-.63a.67.67,0,1,1,0,1.32Z"/><polyline class="cls-1" points="51.51 71.59 51.51 71.38 51.89 71.59 51.51 71.87 51.51 71.59"/><polygon class="cls-3" points="51.51 71.59 51.51 71.38 51.89 71.59 51.51 71.87 51.51 71.59"/><path class="cls-5" d="M59.9,72.28a.67.67,0,1,1,.77-.69.74.74,0,0,1-.77.69"/><path class="cls-3" d="M59.9,72.28a.67.67,0,1,1,.77-.69A.73.73,0,0,1,59.9,72.28Z"/><polyline class="cls-1" points="59.52 71.59 59.9 71.38 60.29 71.59 59.9 71.87 59.52 71.59"/><polygon class="cls-3" points="59.52 71.59 59.9 71.38 60.29 71.59 59.9 71.87 59.52 71.59"/><path class="cls-5" d="M51.51,76.11a.74.74,0,0,1,.76-.7.75.75,0,0,1,.78.7.81.81,0,0,1-.78.69.79.79,0,0,1-.76-.69"/><path class="cls-3" d="M51.51,76.11a.76.76,0,0,1,1.52,0,.76.76,0,0,1-1.52,0Z"/><polyline class="cls-1" points="51.89 76.11 52.27 75.83 52.27 76.11 52.27 76.39 51.89 76.11"/><polygon class="cls-3" points="51.89 76.11 52.27 75.83 52.27 76.11 52.27 76.39 51.89 76.11"/><path class="cls-5" d="M58.76,76.11a.74.74,0,0,1,.76-.7c.38,0,.38.29.38.7s0,.69-.38.69a.79.79,0,0,1-.76-.69"/><path class="cls-3" d="M58.76,76.11a.73.73,0,0,1,.76-.69c.38,0,.38.28.38.69s0,.7-.38.7A.78.78,0,0,1,58.76,76.11Z"/><polyline class="cls-1" points="59.14 76.11 59.52 75.83 59.52 76.11 59.52 76.39 59.14 76.11"/><polygon class="cls-3" points="59.14 76.11 59.52 75.83 59.52 76.11 59.52 76.39 59.14 76.11"/><rect class="cls-1" x="55.33" y="77.85" width="0.38" height="0.56"/><rect class="cls-3" x="55.33" y="77.84" width="0.38" height="0.56"/><path class="cls-5" d="M27.86,60.39l.76-.42c.77-.21.77.06,1.14.35,0,.35,0,.69-.38.83L29,61.3l.38.49-.77.28-.76-1.67"/><path class="cls-1" d="M29,60.88v-.07c0-.07.38-.13.38-.28L29,60.46l-.38.14.38.27"/><polyline class="cls-5" points="30.14 59.48 30.53 59.35 30.91 60.67 31.67 60.53 31.67 61.02 30.14 61.22 30.14 59.48"/><polyline class="cls-5" points="32.81 60.88 32.05 60.88 31.67 59.14 32.05 59.14 32.43 60.18 32.81 59.07 33.19 59 32.81 60.88"/><path class="cls-5" d="M34,60.18v.07l.38.21.38-.13c0-.15,0-.15-.38-.29s-.78-.21-.78-.56.4-.55.78-.55.76.2.76.7l-.38-.07v-.14l-.38-.07v.07c0,.14,0,.21.38.28s.38.28.38.56c0,.48-.38.62-.76.55s-.78-.13-.78-.69l.4.06"/><polyline class="cls-5" points="64.11 60.88 63.35 60.95 62.59 59.21 63.35 59.14 63.73 60.18 63.73 59.07 64.49 59 64.11 60.88"/><polyline class="cls-5" points="64.87 59 65.25 59 65.25 60.33 66.4 60.33 66.4 60.81 64.87 60.81 64.87 59"/><polyline class="cls-5" points="66.78 59.56 66.4 59.56 66.4 59.07 67.92 59.21 67.92 59.7 67.54 59.63 67.16 60.95 66.78 60.88 66.78 59.56"/><path class="cls-5" d="M68.3,59.28l1.14.2c0,.08.38.35.38.63s-.38.35-.38.41v.9l-.38-.14V61c0-.21,0-.35-.38-.42v-.07l-.38.63L67.92,61l.38-1.74"/><path class="cls-1" d="M68.68,60.18l.38.07v-.35l-.38-.08v.35"/><polyline class="cls-5" points="70.97 60.18 71.35 60.39 71.35 62.34 70.97 62.06 70.97 61.78 70.2 61.57 70.2 61.78 69.44 61.51 70.97 60.18"/><polyline class="cls-1" points="70.97 61.43 70.97 60.81 70.59 61.3 70.97 61.43"/><line class="cls-3" x1="31.29" y1="46.83" x2="31.29" y2="46.07"/><line class="cls-10" x1="31.29" y1="46.42" x2="31.29" y2="46.28"/><rect class="cls-5" x="31.29" y="46.56" width="0.38" height="0.49"/><rect class="cls-3" x="31.29" y="46.55" width="0.38" height="0.49"/><path class="cls-5" d="M33.57,49.13c0-.22-.38-.35-.38-.35,0-.21,0-.77-1.15-.77-.38,0-.38.15-.76.35,0-.2-.38-.35-.38-.35-1.14,0-1.14.56-1.14.77,0,0-.38.13-.38.35s0,.2.38.34h3.43c.38-.21.38-.28.38-.34"/><path class="cls-3" d="M33.57,49.13c0-.21-.38-.35-.38-.35,0-.21,0-.77-1.15-.77-.38,0-.38.14-.76.35,0-.21-.38-.35-.38-.35-1.14,0-1.14.56-1.14.77,0,0-.38.14-.38.35s0,.21.38.35h3.43C33.57,49.27,33.57,49.2,33.57,49.13Z"/><path class="cls-5" d="M29,48.22c0,.22,0,.35.38.28,0,0,.38.07.38.28-.38,0-.38.2-.38.35a.93.93,0,0,1-.38-.91"/><path class="cls-3" d="M29,48.22c0,.21,0,.35.38.28,0,0,.38.07.38.28-.38,0-.38.21-.38.35A.92.92,0,0,1,29,48.22Z"/><path class="cls-5" d="M34,48.22c0,.22,0,.35-.4.28s-.38.07-.38.28c0,0,.38.2.38.35a.91.91,0,0,0,.4-.91"/><path class="cls-3" d="M33.95,48.22c0,.21,0,.35-.38.28s-.38.07-.38.28c0,0,.38.21.38.35A.92.92,0,0,0,33.95,48.22Z"/><path class="cls-5" d="M31.29,46.83c.38.14.38.91.38,1.18,1.14-.9,1.53-.69,1.53-.55v.28c-.38,0-.38,0-.38.27-.38.08-.38.08-.38.28-.38.15-.38.07-.38.28s-.38.21-.76,0c0,.21-.38.14-.38,0-.38-.21-.38-.13-.38-.28s-.39-.2-.39-.28c0-.27,0-.27-.38-.27,0-.08,0-.14-.38-.28.38-.14.76-.35,1.9.55V46.83"/><path class="cls-3" d="M31.29,46.83c.38.14.38.91.38,1.18,1.14-.9,1.53-.7,1.53-.56v.28c-.38,0-.38,0-.38.28-.38.07-.38.07-.38.28-.38.14-.38.07-.38.28s-.38.21-.76,0c0,.21-.38.14-.38,0-.38-.21-.38-.14-.38-.28s-.39-.21-.39-.28c0-.28,0-.28-.38-.28,0-.07,0-.14-.38-.28.38-.14.76-.35,1.9.56Z"/><path class="cls-5" d="M29.76,50c0-.35,0-.56-.38-.77a4.44,4.44,0,0,1,1.9-.35,8.45,8.45,0,0,1,2.28.35c-.38.21-.38.42-.38.77H29.76"/><path class="cls-3" d="M29.76,50c0-.35,0-.56-.38-.77a4.51,4.51,0,0,1,1.9-.35,8.64,8.64,0,0,1,2.28.35c-.38.21-.38.42-.38.77Z"/><path class="cls-3" d="M33.19,49.54a6.47,6.47,0,0,0-1.9-.28,3.89,3.89,0,0,0-1.53.28"/><path class="cls-5" d="M29.76,50c0-.21.77-.42,1.53-.42,1.14,0,1.9.21,1.9.42s-.77.49-1.9.49c-.76,0-1.53-.21-1.53-.49"/><path class="cls-3" d="M29.76,50c0-.21.77-.42,1.53-.42,1.14,0,1.9.21,1.9.42s-.77.49-1.9.49C30.53,50.52,29.76,50.31,29.76,50Z"/><path class="cls-1" d="M31.29,50.31c.76,0,1.52-.14,1.52-.28s-.77-.21-1.52-.21c-.38,0-1.15.07-1.15.21s.77.28,1.15.28"/><path class="cls-3" d="M31.29,50.31c.76,0,1.52-.14,1.52-.28s-.77-.21-1.52-.21c-.38,0-1.15.07-1.15.21S30.91,50.31,31.29,50.31Z"/><path class="cls-5" d="M48.84,35A1,1,0,0,1,50,34c.38,0,.76.48.76,1s-.38,1-.76,1a1,1,0,0,1-1.14-1"/><path class="cls-3" d="M48.84,35A1,1,0,0,1,50,34c.38,0,.76.48.76,1s-.38,1-.76,1A1,1,0,0,1,48.84,35Z"/><path class="cls-5" d="M49.61,32v.62h-.76v.49h.76v1.59h-.76v.56h1.9v-.56H50V33.14h.76v-.49H50V32h-.38"/><path class="cls-3" d="M49.61,32v.63h-.76v.48h.76v1.6h-.76v.56h1.9v-.56H50v-1.6h.76v-.48H50V32Z"/><path class="cls-1" d="M57.62,47c2.67-1.12,4.19-3.41,2.67-6-1.52-2-4.19-1.11-5-.55A10.11,10.11,0,0,0,49.61,39a10.6,10.6,0,0,0-5.71,1.46,3.79,3.79,0,0,0-5,.62c-1.53,2.57,0,4.79,2.67,5.91h16"/><path class="cls-3" d="M57.62,47c2.67-1.11,4.19-3.41,2.67-6-1.52-2-4.19-1.11-5-.56A10.11,10.11,0,0,0,49.61,39a10.68,10.68,0,0,0-5.71,1.46,3.8,3.8,0,0,0-5,.62c-1.53,2.58,0,4.8,2.67,5.91Z"/><path class="cls-5" d="M39.69,37.51c.38,0,.38-.14.38-.28s0-.35-.38-.35v.63"/><path class="cls-3" d="M39.69,37.51c.38,0,.38-.14.38-.28s0-.35-.38-.35v.63Z"/><path class="cls-5" d="M38.54,42a1.69,1.69,0,0,1,0-2.78c.76-1.18,3-1.59,4.57-1.32l.4-.41c-1.16-.2-5-.48-6.49,2.43-.38,1.25.38,3.13,1.14,3.41A2,2,0,0,1,38.54,42"/><path class="cls-3" d="M38.54,42a1.7,1.7,0,0,1,0-2.79c.76-1.18,3-1.6,4.57-1.32l.38-.42c-1.14-.21-5-.48-6.48,2.43-.38,1.25.38,3.13,1.14,3.41A1.94,1.94,0,0,1,38.54,42Z"/><path class="cls-5" d="M37.39,43.42s.38-.14.38-.28-.38-.35-.38-.35c-.38,0-.38.14-.38.35s0,.28.38.28"/><path class="cls-3" d="M37.39,43.43s.38-.14.38-.28-.38-.35-.38-.35c-.38,0-.38.14-.38.35S37,43.43,37.39,43.43Z"/><path class="cls-5" d="M37,42.8s.38-.14.38-.35-.38-.27-.38-.27c-.38,0-.38.14-.38.27s0,.35.38.35"/><path class="cls-3" d="M37,42.8s.38-.14.38-.35-.38-.28-.38-.28c-.38,0-.38.14-.38.28S36.64,42.8,37,42.8Z"/><path class="cls-5" d="M36.64,42c.38,0,.38-.13.38-.28s0-.35-.38-.35c0,0-.38.15-.38.35s.38.28.38.28"/><path class="cls-3" d="M36.64,42c.38,0,.38-.14.38-.28s0-.35-.38-.35c0,0-.38.14-.38.35S36.64,42,36.64,42Z"/><path class="cls-5" d="M36.64,41.13S37,41,37,40.86s-.38-.35-.38-.35c-.38,0-.38.13-.38.35s0,.28.38.28"/><path class="cls-3" d="M36.64,41.13S37,41,37,40.85s-.38-.35-.38-.35c-.38,0-.38.14-.38.35S36.26,41.13,36.64,41.13Z"/><path class="cls-5" d="M36.64,40.3c.38,0,.38-.14.38-.35s0-.28-.38-.28c0,0-.38.14-.38.28s.38.35.38.35"/><path class="cls-3" d="M36.64,40.3c.38,0,.38-.14.38-.35s0-.28-.38-.28c0,0-.38.14-.38.28S36.64,40.3,36.64,40.3Z"/><path class="cls-5" d="M37,39.53c.38,0,.38-.14.38-.35s0-.28-.38-.28v.63"/><path class="cls-3" d="M37,39.53c.38,0,.38-.14.38-.35s0-.28-.38-.28v.63Z"/><path class="cls-5" d="M37.78,38.77s.38-.15.38-.28-.38-.35-.38-.35c-.38,0-.38.13-.38.35s0,.28.38.28"/><path class="cls-3" d="M37.78,38.76s.38-.14.38-.28-.38-.35-.38-.35c-.38,0-.38.14-.38.35S37.39,38.76,37.78,38.76Z"/><path class="cls-5" d="M38.16,38.28c.38,0,.38-.13.38-.27s0-.34-.38-.34v.62"/><path class="cls-3" d="M38.16,38.28c.38,0,.38-.14.38-.28s0-.35-.38-.35v.63Z"/><path class="cls-5" d="M38.92,37.86c.38,0,.38-.14.38-.28s0-.35-.38-.35v.63"/><path class="cls-3" d="M38.92,37.86c.38,0,.38-.14.38-.28s0-.35-.38-.35v.62Z"/><path class="cls-5" d="M40.83,37.38v-.63c-.38,0-.38.13-.38.28s0,.35.38.35"/><path class="cls-3" d="M40.83,37.38v-.63c-.38,0-.38.14-.38.28S40.45,37.38,40.83,37.38Z"/><path class="cls-5" d="M41.59,37.31S42,37.17,42,37s-.38-.28-.38-.28c-.38,0-.38.14-.38.28s0,.35.38.35"/><path class="cls-3" d="M41.59,37.31S42,37.17,42,37s-.38-.28-.38-.28c-.38,0-.38.14-.38.28S41.21,37.31,41.59,37.31Z"/><path class="cls-5" d="M42.35,37.31c.38,0,.38-.15.38-.28s0-.35-.38-.35v.63"/><path class="cls-3" d="M42.35,37.31c.38,0,.38-.14.38-.28s0-.35-.38-.35v.62Z"/><path class="cls-5" d="M49.22,37.45c-.77-.28-3-1.18-4.57-.28s-1.54,2.3,0,3.62c-.38.27-.38.77-.76,1a2.86,2.86,0,0,1-.38-4.24c.38-.83,2.67-2.15,5.71-.48v.41"/><path class="cls-3" d="M49.22,37.45c-.77-.28-3-1.18-4.57-.28s-1.54,2.3,0,3.62c-.38.28-.38.76-.76,1a2.88,2.88,0,0,1-.4-4.24c.4-.83,2.68-2.15,5.73-.48Z"/><path class="cls-5" d="M43.11,41.34c.4,0,.4-.13.4-.35s0-.28-.4-.28v.63"/><path class="cls-3" d="M43.11,41.34c.38,0,.38-.14.38-.35s0-.28-.38-.28v.63Z"/><path class="cls-5" d="M43.11,40.57V40c-.38,0-.38.15-.38.28s0,.28.38.28"/><path class="cls-3" d="M43.11,40.57V40c-.38,0-.38.14-.38.28S42.73,40.57,43.11,40.57Z"/><path class="cls-5" d="M42.73,39.88c.38,0,.38-.14.38-.28s0-.35-.38-.35c0,0-.38.14-.38.35s.38.28.38.28"/><path class="cls-3" d="M42.73,39.88c.38,0,.38-.14.38-.28s0-.35-.38-.35c0,0-.38.14-.38.35S42.73,39.88,42.73,39.88Z"/><path class="cls-5" d="M42.73,39s.38-.14.38-.35-.38-.28-.38-.28-.38.14-.38.28.38.35.38.35"/><path class="cls-3" d="M42.73,39s.38-.14.38-.35-.38-.28-.38-.28-.38.14-.38.28S42.73,39,42.73,39Z"/><path class="cls-5" d="M42.73,37.93c0-.2,0-.35.38-.35,0,0,.4.15.4.35s-.4.28-.4.28c-.38,0-.38-.14-.38-.28"/><path class="cls-3" d="M42.73,37.93c0-.21,0-.35.38-.35,0,0,.38.14.38.35s-.38.28-.38.28C42.73,38.21,42.73,38.07,42.73,37.93Z"/><path class="cls-5" d="M43.51,37.58s.38-.14.38-.35-.38-.27-.38-.27-.4.13-.4.27.4.35.4.35"/><path class="cls-3" d="M43.5,37.59s.4-.14.4-.35-.4-.28-.4-.28-.38.13-.38.28S43.5,37.59,43.5,37.59Z"/><path class="cls-5" d="M44.27,37.09v-.62c-.38,0-.38.14-.38.35s0,.28.38.28"/><path class="cls-3" d="M44.27,37.09v-.62c-.38,0-.38.14-.38.35S43.89,37.09,44.27,37.09Z"/><path class="cls-5" d="M44.65,36.75c.39,0,.39-.14.39-.28s0-.35-.39-.35c0,0-.38.15-.38.35s.38.28.38.28"/><path class="cls-3" d="M44.65,36.75c.39,0,.39-.14.39-.28s0-.35-.39-.35c0,0-.38.14-.38.35S44.65,36.75,44.65,36.75Z"/><path class="cls-5" d="M45.41,36.47c.38,0,.38-.14.38-.28s0-.35-.38-.35c0,0-.38.15-.38.35s.38.28.38.28"/><path class="cls-3" d="M45.41,36.47c.38,0,.38-.14.38-.28s0-.35-.38-.35c0,0-.38.14-.38.35S45.41,36.47,45.41,36.47Z"/><path class="cls-5" d="M46.17,36.47c.38,0,.38-.14.38-.35s0-.28-.38-.28v.63"/><path class="cls-3" d="M46.17,36.47c.38,0,.38-.14.38-.35s0-.28-.38-.28v.63Z"/><path class="cls-5" d="M47.32,36.47v-.55c-.38,0-.38.07-.38.27s0,.28.38.28"/><path class="cls-3" d="M47.32,36.47v-.56c-.38,0-.38.07-.38.28S46.94,36.47,47.32,36.47Z"/><path class="cls-5" d="M48.08,36.68v-.56c-.38,0-.38.15-.38.28s0,.28.38.28"/><path class="cls-3" d="M48.08,36.68v-.56c-.38,0-.38.14-.38.28S47.7,36.68,48.08,36.68Z"/><path class="cls-5" d="M48.84,37v-.63c-.39,0-.39.14-.39.28s0,.35.39.35"/><path class="cls-3" d="M48.84,37v-.62c-.39,0-.39.14-.39.28S48.46,37,48.84,37Z"/><path class="cls-5" d="M60.67,42A2,2,0,0,0,61,39.25a6.12,6.12,0,0,0-5-1.32v-.41c.77-.2,4.57-.48,6.1,2.43.4,1.25-.38,3.13-1.14,3.41A2,2,0,0,0,60.67,42"/><path class="cls-3" d="M60.67,42A2,2,0,0,0,61,39.25a6.09,6.09,0,0,0-5-1.32v-.42c.77-.21,4.57-.48,6.1,2.43.38,1.25-.38,3.13-1.14,3.41A2,2,0,0,0,60.67,42Z"/><path class="cls-5" d="M61.81,43.42V42.8c.38,0,.38.14.38.35s0,.28-.38.28"/><path class="cls-3" d="M61.81,43.43V42.8c.38,0,.38.14.38.35S62.19,43.43,61.81,43.43Z"/><path class="cls-5" d="M62.19,42.8v-.62c.4,0,.4.14.4.27s0,.35-.4.35"/><path class="cls-3" d="M62.19,42.8v-.63c.38,0,.38.14.38.28S62.57,42.8,62.19,42.8Z"/><path class="cls-5" d="M62.59,42s-.4-.13-.4-.28.4-.35.4-.35c.38,0,.38.15.38.35s0,.28-.38.28"/><path class="cls-3" d="M62.57,42s-.38-.14-.38-.28.38-.35.38-.35c.4,0,.4.14.4.35S63,42,62.57,42Z"/><path class="cls-5" d="M62.59,41.13s-.4-.14-.4-.28.4-.35.4-.35c.38,0,.38.13.38.35s0,.28-.38.28"/><path class="cls-3" d="M62.57,41.13s-.38-.14-.38-.28.38-.35.38-.35c.4,0,.4.14.4.35S63,41.13,62.57,41.13Z"/><path class="cls-5" d="M62.59,40.3c-.4,0-.4-.14-.4-.35s0-.28.4-.28c0,0,.38.14.38.28s-.38.35-.38.35"/><path class="cls-3" d="M62.57,40.3c-.38,0-.38-.14-.38-.35s0-.28.38-.28c0,0,.4.14.4.28S62.57,40.3,62.57,40.3Z"/><path class="cls-5" d="M62.19,39.53c-.38,0-.38-.14-.38-.35s0-.28.38-.28c0,0,.4.14.4.28s-.4.35-.4.35"/><path class="cls-3" d="M62.19,39.53c-.38,0-.38-.14-.38-.35s0-.28.38-.28c0,0,.38.14.38.28S62.19,39.53,62.19,39.53Z"/><path class="cls-5" d="M61.43,38.77v-.63c.38,0,.38.13.38.35s0,.28-.38.28"/><path class="cls-3" d="M61.43,38.76v-.62c.38,0,.38.14.38.35S61.81,38.76,61.43,38.76Z"/><path class="cls-5" d="M61,38.28c-.38,0-.38-.13-.38-.27s0-.34.38-.34c0,0,.38.13.38.34s-.38.27-.38.27"/><path class="cls-3" d="M61,38.28c-.38,0-.38-.14-.38-.28s0-.35.38-.35c0,0,.38.14.38.35S61,38.28,61,38.28Z"/><path class="cls-5" d="M60.29,37.86c-.38,0-.38-.14-.38-.28s0-.35.38-.35c0,0,.38.15.38.35s-.38.28-.38.28"/><path class="cls-3" d="M60.29,37.86c-.38,0-.38-.14-.38-.28s0-.35.38-.35c0,0,.38.14.38.35S60.29,37.86,60.29,37.86Z"/><path class="cls-5" d="M58.76,37.38c-.38,0-.38-.15-.38-.35s0-.28.38-.28v.63"/><path class="cls-3" d="M58.76,37.38c-.38,0-.38-.14-.38-.35s0-.28.38-.28v.63Z"/><path class="cls-5" d="M57.62,37.31s-.38-.15-.38-.35.38-.28.38-.28c.38,0,.38.14.38.28s0,.35-.38.35"/><path class="cls-3" d="M57.62,37.31s-.38-.14-.38-.35.38-.28.38-.28c.38,0,.38.14.38.28S58,37.31,57.62,37.31Z"/><path class="cls-5" d="M56.86,37.31c-.38,0-.38-.15-.38-.28s0-.35.38-.35c0,0,.38.14.38.35s-.38.28-.38.28"/><path class="cls-3" d="M56.86,37.31c-.38,0-.38-.14-.38-.28s0-.35.38-.35c0,0,.38.14.38.35S56.86,37.31,56.86,37.31Z"/><path class="cls-5" d="M50,37.45c.76-.28,3.07-1.18,4.59-.28s1.52,2.3.38,3.62c0,.27,0,.77.38,1a3.24,3.24,0,0,0,.76-4.24c-.76-.83-3-2.15-6.11-.48v.41"/><path class="cls-3" d="M50,37.45c.76-.28,3-1.18,4.59-.28s1.52,2.3.38,3.62c0,.28,0,.76.38,1a3.25,3.25,0,0,0,.76-4.24C55.33,36.68,53,35.36,50,37Z"/><path class="cls-5" d="M56.09,41.34c-.38,0-.38-.13-.38-.35s0-.28.38-.28c0,0,.38.15.38.28s-.38.35-.38.35"/><path class="cls-3" d="M56.09,41.34c-.38,0-.38-.14-.38-.35s0-.28.38-.28c0,0,.38.14.38.28S56.09,41.34,56.09,41.34Z"/><path class="cls-5" d="M56.48,40.57c-.38,0-.38-.06-.38-.28s0-.28.38-.28v.56"/><path class="cls-3" d="M56.48,40.57c-.38,0-.38-.07-.38-.28s0-.28.38-.28v.55Z"/><path class="cls-5" d="M56.48,39.88s-.38-.14-.38-.28.38-.35.38-.35c.38,0,.38.14.38.35s0,.28-.38.28"/><path class="cls-3" d="M56.48,39.88s-.38-.14-.38-.28.38-.35.38-.35c.38,0,.38.14.38.35S56.86,39.88,56.48,39.88Z"/><path class="cls-5" d="M56.48,39s-.38-.14-.38-.35.38-.28.38-.28c.38,0,.38.14.38.28s0,.35-.38.35"/><path class="cls-3" d="M56.48,39s-.38-.14-.38-.35.38-.28.38-.28c.38,0,.38.14.38.28S56.86,39,56.48,39Z"/><path class="cls-5" d="M56.09,38.21v-.63c.38,0,.38.15.38.35s0,.28-.38.28"/><path class="cls-3" d="M56.09,38.21v-.62c.38,0,.38.14.38.35S56.48,38.21,56.09,38.21Z"/><path class="cls-5" d="M55.33,37.23c0-.14.38-.27.38-.27.38,0,.38.13.38.27s0,.35-.38.35c0,0-.38-.14-.38-.35"/><path class="cls-3" d="M55.33,37.24c0-.14.38-.28.38-.28.38,0,.38.13.38.28s0,.35-.38.35C55.72,37.59,55.33,37.45,55.33,37.24Z"/><path class="cls-5" d="M55.33,37.09c-.38,0-.38-.13-.38-.28s0-.35.38-.35v.62"/><path class="cls-3" d="M55.33,37.09c-.38,0-.38-.13-.38-.28s0-.35.38-.35v.62Z"/><path class="cls-5" d="M54.57,36.75c-.38,0-.38-.14-.38-.28s0-.35.38-.35c0,0,.38.15.38.35s-.38.28-.38.28"/><path class="cls-3" d="M54.57,36.75c-.38,0-.38-.14-.38-.28s0-.35.38-.35c0,0,.38.14.38.35S54.57,36.75,54.57,36.75Z"/><path class="cls-5" d="M53.81,36.47c-.38,0-.38-.14-.38-.28s0-.35.38-.35c0,0,.38.15.38.35s-.38.28-.38.28"/><path class="cls-3" d="M53.81,36.47c-.38,0-.38-.14-.38-.28s0-.35.38-.35c0,0,.38.14.38.35S53.81,36.47,53.81,36.47Z"/><path class="cls-5" d="M53.05,36.47c-.4,0-.4-.14-.4-.35s0-.28.4-.28c0,0,.38.15.38.28s-.38.35-.38.35"/><path class="cls-3" d="M53,36.47c-.38,0-.38-.14-.38-.35s0-.28.38-.28c0,0,.4.14.4.28S53,36.47,53,36.47Z"/><path class="cls-5" d="M52.27,36.47c-.38,0-.38-.14-.38-.28s0-.27.38-.27v.55"/><path class="cls-3" d="M52.27,36.47c-.38,0-.38-.14-.38-.28s0-.28.38-.28v.56Z"/><path class="cls-5" d="M51.51,36.68c-.38,0-.38-.07-.38-.28s0-.28.38-.28v.56"/><path class="cls-3" d="M51.51,36.68c-.38,0-.38-.07-.38-.28s0-.28.38-.28v.56Z"/><path class="cls-5" d="M50.74,37c-.38,0-.38-.15-.38-.35s0-.28.38-.28V37"/><path class="cls-3" d="M50.74,37c-.38,0-.38-.14-.38-.35s0-.28.38-.28V37Z"/><path class="cls-5" d="M57.62,47l-.38,2H42l-.38-2a40.82,40.82,0,0,1,8-1c1.9.07,6.11.28,8,1"/><path class="cls-3" d="M57.62,47l-.38,2H42l-.38-2a41.14,41.14,0,0,1,8-1C51.51,46.14,55.72,46.35,57.62,47Z"/><path class="cls-5" d="M41.59,49.13c0-.63,3.83-1.12,8-1.12,4.59,0,8,.49,8,1.12s-3.43,1.11-8,1.11c-4.19,0-8-.49-8-1.11"/><path class="cls-3" d="M41.59,49.13c0-.62,3.83-1.11,8-1.11,4.59,0,8,.49,8,1.11s-3.43,1.11-8,1.11C45.41,50.24,41.59,49.76,41.59,49.13Z"/><path class="cls-1" d="M42.73,49.13c0-.42,3.07-.69,6.88-.69s6.87.27,6.87.69-3,.69-6.87.69-6.88-.35-6.88-.69"/><path class="cls-3" d="M42.73,49.13c0-.42,3.07-.69,6.88-.69s6.87.28,6.87.69-3,.7-6.87.7S42.73,49.48,42.73,49.13Z"/><path class="cls-5" d="M49.61,46.35a29,29,0,0,1,8.4,1l.38-.49a31.12,31.12,0,0,0-8.78-1.11,26.63,26.63,0,0,0-8.4,1.11v.49a29,29,0,0,1,8.4-1"/><path class="cls-3" d="M49.61,46.35a29.14,29.14,0,0,1,8.4,1l.38-.49a31.21,31.21,0,0,0-8.78-1.11,26.63,26.63,0,0,0-8.4,1.11v.49A29.1,29.1,0,0,1,49.61,46.35Z"/><path class="cls-1" d="M42,48.44s.38-.15.38-.35-.38-.43-.38-.43c-.38,0-.38.21-.38.43s0,.35.38.35"/><path class="cls-3" d="M42,48.43s.38-.14.38-.35-.38-.42-.38-.42c-.38,0-.38.21-.38.42S41.59,48.43,42,48.43Z"/><path class="cls-5" d="M43.51,48s.38-.2.38-.41-.38-.42-.38-.42c-.4,0-.4.22-.4.42s0,.41.4.41"/><path class="cls-3" d="M43.5,48s.4-.21.4-.42-.4-.42-.4-.42c-.38,0-.38.21-.38.42S43.11,48,43.5,48Z"/><path class="cls-5" d="M47.7,47.53c.38,0,.38-.21.38-.42s0-.35-.38-.35-.38.14-.38.35,0,.42.38.42"/><path class="cls-3" d="M47.7,47.53c.38,0,.38-.21.38-.42s0-.35-.38-.35-.38.14-.38.35S47.32,47.53,47.7,47.53Z"/><path class="cls-11" d="M45,47.74s-.39-.14-.39-.35S45,47,45,47a6.21,6.21,0,0,0,1.14-.14c.38,0,.38.22.38.42s0,.35-.38.35-.76.07-1.14.14"/><path class="cls-3" d="M45,47.74s-.39-.14-.39-.34S45,47,45,47a6.21,6.21,0,0,0,1.14-.14c.38,0,.38.21.38.42s0,.35-.38.35S45.41,47.67,45,47.74Z"/><path class="cls-1" d="M57.62,48.44c-.38,0-.38-.15-.38-.35s0-.43.38-.43c0,0,.38.21.38.43s-.38.35-.38.35"/><path class="cls-3" d="M57.62,48.43c-.38,0-.38-.14-.38-.35s0-.42.38-.42c0,0,.38.21.38.42S57.62,48.43,57.62,48.43Z"/><path class="cls-5" d="M55.72,48s-.38-.2-.38-.41.38-.42.38-.42c.38,0,.38.22.38.42s0,.41-.38.41"/><path class="cls-3" d="M55.72,48s-.38-.21-.38-.42.38-.42.38-.42c.38,0,.38.21.38.42S56.09,48,55.72,48Z"/><path class="cls-5" d="M51.51,47.53s-.38-.21-.38-.42.38-.35.38-.35c.38,0,.38.14.38.35s0,.42-.38.42"/><path class="cls-3" d="M51.51,47.53s-.38-.21-.38-.42.38-.35.38-.35c.38,0,.38.14.38.35S51.89,47.53,51.51,47.53Z"/><path class="cls-11" d="M54.19,47.74c.38,0,.38-.14.38-.35s0-.43-.38-.43a6.22,6.22,0,0,1-1.14-.14c-.4,0-.4.22-.4.42s0,.35.4.35.76.07,1.14.14"/><path class="cls-3" d="M54.19,47.74c.38,0,.38-.14.38-.34s0-.42-.38-.42A6.62,6.62,0,0,1,53,46.83c-.38,0-.38.21-.38.42s0,.35.38.35S53.81,47.67,54.19,47.74Z"/><path class="cls-1" d="M49.61,47.46h.76c.38,0,.38-.21.38-.41s0-.35-.38-.35H48.84s-.39.13-.39.35.39.41.39.41h.76"/><path class="cls-3" d="M49.61,47.46h.76c.38,0,.38-.21.38-.42s0-.35-.38-.35H48.84s-.39.14-.39.35.39.42.39.42Z"/><path class="cls-5" d="M50.37,41.41c0-.48.76-.9.76-1a11.9,11.9,0,0,1-.38-1.53c0-.63,0-2.92-1.14-2.92-.76,0-.76,2.29-.76,2.92a11.79,11.79,0,0,1-.39,1.53c0,.15.77.56.77,1h1.14"/><path class="cls-3" d="M50.37,41.41c0-.49.76-.91.76-1a12.21,12.21,0,0,1-.38-1.53c0-.63,0-2.92-1.14-2.92-.76,0-.76,2.3-.76,2.92a12.1,12.1,0,0,1-.39,1.53c0,.14.77.55.77,1Z"/><path class="cls-5" d="M50,41.06c.38-.42.38-.62.76-.83A5.19,5.19,0,0,1,50.37,38c0-.34-.38-1.47-.76-1.47s-.38,1.12-.38,1.47a5.19,5.19,0,0,1-.38,2.22c.38.21.38.41.76.83H50"/><path class="cls-3" d="M50,41.06c.38-.42.38-.63.76-.84A5.2,5.2,0,0,1,50.37,38c0-.35-.38-1.46-.76-1.46s-.38,1.11-.38,1.46a5.2,5.2,0,0,1-.38,2.22c.38.21.38.42.76.84Z"/><path class="cls-5" d="M50,37.38v-.63c-.38,0-.38.13-.38.34s0,.28.38.28"/><path class="cls-3" d="M50,37.38v-.63c-.38,0-.38.14-.38.35S49.61,37.38,50,37.38Z"/><path class="cls-5" d="M50,38.07v-.56c-.38,0-.38.15-.38.28s0,.28.38.28"/><path class="cls-3" d="M50,38.07v-.56c-.38,0-.38.14-.38.28S49.61,38.07,50,38.07Z"/><path class="cls-5" d="M50,38.84v-.63c-.38,0-.38.14-.38.28s0,.35.38.35"/><path class="cls-3" d="M50,38.84v-.63c-.38,0-.38.14-.38.28S49.61,38.84,50,38.84Z"/><path class="cls-5" d="M49.22,39.39c0-.28.38-.49.76-.49,0,0,.38.21.38.49s-.38.49-.38.49c-.38,0-.76-.21-.76-.49"/><path class="cls-3" d="M49.22,39.39c0-.28.38-.49.76-.49,0,0,.38.21.38.49s-.38.49-.38.49C49.61,39.88,49.22,39.67,49.22,39.39Z"/><path class="cls-5" d="M50,41.13A.6.6,0,0,0,50,40c-.38,0-.76.21-.76.56s.38.56.76.56"/><path class="cls-3" d="M50,41.13A.59.59,0,0,0,50,40c-.38,0-.76.21-.76.55S49.61,41.13,50,41.13Z"/><path class="cls-5" d="M49.61,45.1c.38,1.11,1.9.76,2.67.28.78,1.18,1.92.55,2.68.14.38,1.25,1.9,1,2.28.84.77.9,1.9.55,2.67-.56s1.14-1.6,2.29-1.74a4.06,4.06,0,0,1-.76-1c-.38.28-.38.28-.76.28,0-.07-.77-.07-.77.7a1,1,0,0,0-1.14-.28l.38.28a1.65,1.65,0,0,0-1.14.06c0,.21.38.63.38.76V45c0,.2.76.42,1.14.35-.38.41-1.14,1.11-1.52.83-.77-.28-.38-.7-.38-1a1.62,1.62,0,0,1-1.9.56c-.76-.35-.76-1-.38-1.11,0-.21.76-.21,1.14.2-.38-.2,0-.63.38-.55s.76-.28,0-.49c-.38-.28-.38-.41,0-.55-.38-.15-.38-.08-.77,0s-.38.06-.38-.28c.38-.28.38-.62.76-.91-.38.15-.38,0-.38-.35s-.38-.42-.76-.13a.45.45,0,0,1-.76.28v1c-.38-.21-.76-.14-.76-.07v.42a1,1,0,0,0-1.16.21c.4.14.77.41.77.56l-.38.48a5.71,5.71,0,0,1,1.52.06,1.46,1.46,0,0,1-1.52,1,1.58,1.58,0,0,1-.78-1.25c-.38.49-1.14,1.12-1.53,1a1.46,1.46,0,0,1-1.14-1.46,4.5,4.5,0,0,1,1.9.28c-.38-.21,0-.63.38-.7,0-.07.38-.42-.38-.48-.38-.08-.38-.42-.38-.63s-.38.14-.76.28-.38-.21,0-.49v-.69c0,.07-.38.21-.38-.35,0-.28-.38-.35-.38-.35s-.38.07-.38.35-.38.41-.38.35a.72.72,0,0,0,.38.69c0,.28,0,.56-.38.49,0-.15-.39-.35-.77-.28,0,.21,0,.55-.38.63-.77.06-.38.41-.38.48.38.07.76.48.38.7a4.48,4.48,0,0,1,1.9-.28,1.46,1.46,0,0,1-1.15,1.46c-.38.07-1.14-.56-1.52-1a1.61,1.61,0,0,1-.76,1.25,1.47,1.47,0,0,1-1.53-1,5.76,5.76,0,0,1,1.53-.06l-.38-.48c0-.15.38-.42.76-.56a.92.92,0,0,0-1.14-.21v-.42c0-.07-.38-.14-.77.07,0-.35.39-.69,0-1a.45.45,0,0,1-.76-.28c-.38-.28-.38-.28-.38.13s-.4.49-.78.35c.38.28.38.63.78.91,0,.35,0,.35-.4.28,0-.08-.38-.15-.76,0,.38.14.38.27,0,.55-.77.21-.38.56,0,.49s.76.35.38.55a1.42,1.42,0,0,1,1.54-.2,1.17,1.17,0,0,1-.76,1.11c-.4.42-1.54-.15-1.92-.56,0,.28.38.7-.38,1-.38.28-1.14-.42-1.52-.83.76.07,1.14-.15,1.14-.35v-.08c0-.13.38-.55.38-.76a1.66,1.66,0,0,0-1.14-.06l.38-.28a1,1,0,0,0-1.14.28c0-.77-.76-.77-.76-.7-.38,0-.38,0-.77-.28a4.06,4.06,0,0,1-.76,1c1.14.14,1.53.63,2.29,1.74s1.9,1.46,2.67.56c.38.13,1.92.41,2.3-.84.77.41,1.9,1,2.67-.14.77.48,2.29.83,2.67-.28"/><path class="cls-3" d="M49.61,45.1c.38,1.11,1.9.76,2.67.28.76,1.18,1.92.55,2.68.14.38,1.25,1.9,1,2.28.83.77.9,1.9.56,2.67-.55s1.14-1.6,2.29-1.74a4.12,4.12,0,0,1-.76-1c-.38.28-.38.28-.76.28,0-.07-.77-.07-.77.7-.38-.35-.76-.49-1.14-.28l.38.28a1.6,1.6,0,0,0-1.14.07c0,.21.38.62.38.76V45c0,.21.76.42,1.14.35-.38.42-1.14,1.11-1.52.84-.77-.28-.38-.7-.38-1a1.61,1.61,0,0,1-1.9.56c-.76-.35-.76-1-.38-1.11,0-.21.76-.21,1.14.21-.38-.21,0-.63.38-.56s.76-.28,0-.48c-.38-.28-.38-.42,0-.56-.38-.14-.38-.07-.77,0s-.38.07-.38-.28c.38-.28.38-.62.76-.9-.38.13-.38,0-.38-.35s-.38-.42-.76-.14a.45.45,0,0,1-.76.28v1c-.38-.21-.76-.14-.76-.06v.41a.94.94,0,0,0-1.16.21c.38.14.77.42.77.56l-.4.49a5.62,5.62,0,0,1,1.54.07,1.47,1.47,0,0,1-1.54,1,1.62,1.62,0,0,1-.76-1.25c-.38.49-1.14,1.11-1.53,1a1.46,1.46,0,0,1-1.14-1.46,4.43,4.43,0,0,1,1.9.28c-.38-.21,0-.63.38-.7,0-.07.38-.42-.38-.49-.38-.07-.38-.42-.38-.62s-.38.14-.76.28-.38-.21,0-.48v-.7c0,.07-.38.21-.38-.35,0-.28-.38-.35-.38-.35s-.38.07-.38.35-.38.42-.38.35a.73.73,0,0,0,.38.7c0,.28,0,.55-.38.48,0-.14-.39-.35-.77-.28,0,.21,0,.55-.38.62-.77.07-.38.42-.38.49.38.07.76.48.38.7a4.41,4.41,0,0,1,1.9-.28,1.46,1.46,0,0,1-1.15,1.46c-.38.07-1.14-.56-1.52-1a1.62,1.62,0,0,1-.76,1.25,1.46,1.46,0,0,1-1.53-1,5.57,5.57,0,0,1,1.53-.07l-.38-.49c0-.14.38-.42.76-.56a.92.92,0,0,0-1.14-.21v-.41c0-.07-.38-.14-.77.06,0-.35.39-.69,0-1a.45.45,0,0,1-.76-.28c-.4-.28-.4-.28-.4.14s-.38.48-.77.35c.38.28.38.62.77.9,0,.35,0,.35-.38.28,0-.07-.38-.14-.76,0,.38.14.38.28,0,.56-.77.21-.38.55,0,.48s.76.35.38.56a1.42,1.42,0,0,1,1.54-.21,1.17,1.17,0,0,1-.77,1.11c-.38.42-1.53-.14-1.91-.56,0,.28.38.7-.38,1-.38.28-1.14-.42-1.52-.84.76.07,1.14-.14,1.14-.35v-.07c0-.14.38-.55.38-.76a1.61,1.61,0,0,0-1.14-.07l.38-.28c-.38-.21-.76-.07-1.14.28,0-.77-.76-.77-.76-.7-.38,0-.38,0-.77-.28a4.12,4.12,0,0,1-.76,1c1.14.14,1.53.63,2.29,1.74s1.9,1.46,2.67.55c.38.14,1.92.42,2.3-.83.77.42,1.9,1,2.67-.14.77.48,2.29.83,2.67-.28"/><path class="cls-1" d="M38.92,45.58c.38,0,.38-.27.38-.48s0-.48-.38-.48-.38.2-.38.48,0,.48.38.48"/><path class="cls-3" d="M38.92,45.58c.38,0,.38-.28.38-.48s0-.49-.38-.49-.38.21-.38.49S38.54,45.58,38.92,45.58Z"/><path class="cls-1" d="M44.27,44.4c.38,0,.38-.28.38-.63s0-.63-.38-.63a.64.64,0,1,0,0,1.26"/><path class="cls-3" d="M44.27,44.4c.38,0,.38-.28.38-.62s0-.63-.38-.63a.64.64,0,1,0,0,1.26Z"/><path class="cls-1" d="M49.22,43.08c0-.35,0-.62.38-.62a.64.64,0,1,1,0,1.25c-.38,0-.38-.28-.38-.63"/><path class="cls-3" d="M49.22,43.08c0-.35,0-.63.38-.63a.64.64,0,1,1,0,1.25C49.22,43.7,49.22,43.43,49.22,43.08Z"/><path class="cls-5" d="M41.21,45.16c0-.2.38-.41.38-.41.38,0,.38.21.38.41s0,.41-.38.41c0,0-.38-.2-.38-.41"/><path class="cls-3" d="M41.21,45.16c0-.21.38-.41.38-.41.38,0,.38.21.38.41s0,.42-.38.42C41.59,45.58,41.21,45.37,41.21,45.16Z"/><path class="cls-5" d="M46.55,44.19c0-.21.38-.42.38-.42.38,0,.38.21.38.42s0,.42-.38.42c0,0-.38-.21-.38-.42"/><path class="cls-3" d="M46.55,44.19c0-.21.38-.41.38-.41.38,0,.38.21.38.41s0,.42-.38.42C46.94,44.61,46.55,44.4,46.55,44.19Z"/><path class="cls-1" d="M60.29,45.58c-.38,0-.38-.27-.38-.48s0-.48.38-.48.38.2.38.48,0,.48-.38.48"/><path class="cls-3" d="M60.29,45.58c-.38,0-.38-.28-.38-.48s0-.49.38-.49.38.21.38.49S60.67,45.58,60.29,45.58Z"/><path class="cls-1" d="M55,44.4c-.38,0-.38-.28-.38-.63s0-.63.38-.63a.64.64,0,1,1,0,1.26"/><path class="cls-3" d="M55,44.4c-.38,0-.38-.28-.38-.62s0-.63.38-.63a.64.64,0,1,1,0,1.26Z"/><path class="cls-5" d="M57.62,45.58c-.38,0-.38-.2-.38-.41s0-.41.38-.41c0,0,.38.21.38.41s-.38.41-.38.41"/><path class="cls-3" d="M57.62,45.58c-.38,0-.38-.21-.38-.42s0-.41.38-.41c0,0,.38.21.38.41S57.62,45.58,57.62,45.58Z"/><path class="cls-5" d="M51.89,44.19c0-.21,0-.42.38-.42,0,0,.38.21.38.42s-.38.42-.38.42c-.38,0-.38-.21-.38-.42"/><path class="cls-3" d="M51.89,44.19c0-.21,0-.41.38-.41,0,0,.38.21.38.41s-.38.42-.38.42C51.89,44.61,51.89,44.4,51.89,44.19Z"/><polyline class="cls-5" points="67.92 47.25 67.92 46.97 68.3 47.25 67.92 47.46 67.92 47.25"/><polygon class="cls-3" points="67.92 47.25 67.92 46.97 68.3 47.25 67.92 47.46 67.92 47.25"/><polyline class="cls-5" points="67.92 46.55 67.92 46.7 67.92 46.83 67.92 47.18 67.92 47.32 68.3 47.32 68.3 47.18 68.3 46.83 68.3 46.7 68.3 46.55 67.92 46.55"/><polygon class="cls-3" points="67.92 46.55 67.92 46.69 67.92 46.83 67.92 47.18 67.92 47.32 68.3 47.32 68.3 47.18 68.3 46.83 68.3 46.69 68.3 46.55 67.92 46.55"/><path class="cls-1" d="M69.83,50c.76-.28,1.14-.76.76-1.39a1,1,0,0,0-1.14-.13,2.82,2.82,0,0,0-1.52-.28,2.24,2.24,0,0,0-1.14.28.94.94,0,0,0-1.14.2c-.38.56,0,1,.76,1.32h3.43"/><path class="cls-3" d="M69.83,50c.76-.28,1.14-.76.76-1.39a1,1,0,0,0-1.14-.14,2.87,2.87,0,0,0-1.52-.28,2.28,2.28,0,0,0-1.14.28,1,1,0,0,0-1.14.21c-.38.56,0,1,.76,1.32Z"/><polygon class="cls-5" points="65.64 47.81 65.64 47.81 65.64 47.66 65.64 47.81"/><polygon class="cls-3" points="65.64 47.81 65.64 47.81 65.64 47.67 65.64 47.81"/><path class="cls-5" d="M65.64,48.78c-.38-.15-.38-.35,0-.63,0-.21.76-.35.76-.28l.38-.06a1.34,1.34,0,0,0-1.53.55c0,.28,0,.69.38.77v-.35"/><path class="cls-3" d="M65.64,48.78c-.38-.14-.38-.35,0-.62,0-.21.76-.35.76-.28l.38-.06a1.34,1.34,0,0,0-1.53.55c0,.28,0,.69.38.77Z"/><polygon class="cls-5" points="65.25 49.13 65.25 49.13 65.25 48.99 65.25 49.13"/><polygon class="cls-3" points="65.25 49.13 65.25 49.13 65.25 48.99 65.25 49.13"/><polygon class="cls-5" points="65.25 48.99 65.25 48.99 65.25 48.85 65.25 48.99"/><polygon class="cls-3" points="65.25 48.99 65.25 48.99 65.25 48.85 65.25 48.99"/><polygon class="cls-5" points="65.25 48.78 65.25 48.78 65.25 48.64 65.25 48.78"/><polygon class="cls-3" points="65.25 48.78 65.25 48.78 65.25 48.64 65.25 48.78"/><polygon class="cls-5" points="64.87 48.64 64.87 48.64 64.87 48.5 64.87 48.64"/><polygon class="cls-3" points="64.87 48.64 64.87 48.64 64.87 48.5 64.87 48.64"/><polygon class="cls-5" points="65.25 48.44 65.25 48.44 65.25 48.29 65.25 48.44"/><polygon class="cls-3" points="65.25 48.44 65.25 48.44 65.25 48.29 65.25 48.44"/><polyline class="cls-5" points="65.25 48.22 65.25 48.16 65.25 48.09 65.25 48.16 65.25 48.22"/><polygon class="cls-3" points="65.25 48.22 65.25 48.16 65.25 48.09 65.25 48.16 65.25 48.22"/><polygon class="cls-5" points="65.25 48.09 65.25 48.09 65.25 47.95 65.25 48.09"/><polygon class="cls-3" points="65.25 48.09 65.25 48.09 65.25 47.95 65.25 48.09"/><polygon class="cls-5" points="65.25 47.95 65.25 47.95 65.25 47.81 65.25 47.95"/><polygon class="cls-3" points="65.25 47.95 65.25 47.95 65.25 47.81 65.25 47.95"/><polyline class="cls-5" points="65.64 47.87 65.64 47.81 65.64 47.74 65.64 47.81 65.64 47.87"/><polygon class="cls-3" points="65.64 47.87 65.64 47.81 65.64 47.74 65.64 47.81 65.64 47.87"/><polygon class="cls-5" points="66.02 47.74 66.02 47.74 66.02 47.6 66.02 47.74"/><polygon class="cls-3" points="66.02 47.74 66.02 47.74 66.02 47.6 66.02 47.74"/><polygon class="cls-5" points="66.02 47.74 66.02 47.74 66.02 47.6 66.02 47.74"/><polygon class="cls-3" points="66.02 47.74 66.02 47.74 66.02 47.6 66.02 47.74"/><polygon class="cls-5" points="66.4 47.74 66.4 47.74 66.4 47.6 66.4 47.74"/><polygon class="cls-3" points="66.4 47.74 66.4 47.74 66.4 47.6 66.4 47.74"/><path class="cls-5" d="M67.92,47.81a1.42,1.42,0,0,0-1.14-.07c0,.21-.38.48,0,.76v.28c0-.15-.38-.56,0-1,0-.21.38-.49,1.14-.15v.15"/><path class="cls-3" d="M67.92,47.81a1.42,1.42,0,0,0-1.14-.07c0,.21-.38.49,0,.77v.28c0-.14-.38-.56,0-1,0-.21.38-.49,1.14-.14Z"/><polyline class="cls-5" points="66.78 48.64 66.78 48.57 66.78 48.5 66.4 48.57 66.78 48.64"/><polygon class="cls-3" points="66.78 48.64 66.78 48.57 66.78 48.5 66.4 48.57 66.78 48.64"/><polygon class="cls-5" points="66.4 48.5 66.4 48.5 66.4 48.36 66.4 48.5"/><polygon class="cls-3" points="66.4 48.5 66.4 48.5 66.4 48.36 66.4 48.5"/><polyline class="cls-5" points="66.4 48.36 66.4 48.29 66.4 48.16 66.4 48.29 66.4 48.36"/><polygon class="cls-3" points="66.4 48.36 66.4 48.29 66.4 48.16 66.4 48.29 66.4 48.36"/><polygon class="cls-5" points="66.4 48.16 66.4 48.16 66.4 48.01 66.4 48.16"/><polygon class="cls-3" points="66.4 48.16 66.4 48.16 66.4 48.02 66.4 48.16"/><polygon class="cls-5" points="66.4 47.95 66.4 47.95 66.4 47.81 66.4 47.95"/><polygon class="cls-3" points="66.4 47.95 66.4 47.95 66.4 47.81 66.4 47.95"/><polyline class="cls-5" points="66.78 47.81 66.78 47.74 66.78 47.66 66.78 47.74 66.78 47.81"/><polygon class="cls-3" points="66.78 47.81 66.78 47.74 66.78 47.67 66.78 47.74 66.78 47.81"/><polygon class="cls-5" points="66.78 47.74 66.78 47.74 66.78 47.6 66.78 47.74"/><polygon class="cls-3" points="66.78 47.74 66.78 47.74 66.78 47.6 66.78 47.74"/><polygon class="cls-5" points="66.78 47.6 66.78 47.6 66.78 47.46 66.78 47.6"/><polygon class="cls-3" points="66.78 47.6 66.78 47.6 66.78 47.46 66.78 47.6"/><polygon class="cls-5" points="67.16 47.6 67.16 47.6 67.16 47.46 67.16 47.6"/><polygon class="cls-3" points="67.16 47.6 67.16 47.6 67.16 47.46 67.16 47.6"/><polygon class="cls-5" points="67.16 47.53 67.16 47.53 67.16 47.4 67.16 47.53"/><polygon class="cls-3" points="67.16 47.53 67.16 47.53 67.16 47.39 67.16 47.53"/><polygon class="cls-5" points="67.54 47.6 67.54 47.6 67.54 47.46 67.54 47.6"/><polygon class="cls-3" points="67.54 47.6 67.54 47.6 67.54 47.46 67.54 47.6"/><polyline class="cls-5" points="67.54 47.6 67.92 47.53 67.54 47.46 67.54 47.53 67.54 47.6"/><polygon class="cls-3" points="67.54 47.6 67.92 47.53 67.54 47.46 67.54 47.53 67.54 47.6"/><polygon class="cls-5" points="67.92 47.66 67.92 47.66 67.92 47.53 67.92 47.66"/><polygon class="cls-3" points="67.92 47.67 67.92 47.67 67.92 47.53 67.92 47.67"/><path class="cls-5" d="M70.59,48.78v-.63a1.77,1.77,0,0,0-1.14-.28v-.06a1.34,1.34,0,0,1,1.53.55c0,.28,0,.69-.38.77v-.35"/><path class="cls-3" d="M70.59,48.78v-.62a1.77,1.77,0,0,0-1.14-.28v-.06a1.34,1.34,0,0,1,1.53.55c0,.28,0,.69-.38.77Z"/><polygon class="cls-5" points="70.59 49.13 70.59 49.13 70.59 48.99 70.59 49.13"/><polygon class="cls-3" points="70.59 49.13 70.59 49.13 70.59 48.99 70.59 49.13"/><polygon class="cls-5" points="70.97 48.99 70.97 48.99 70.97 48.85 70.97 48.99"/><polygon class="cls-3" points="70.97 48.99 70.97 48.99 70.97 48.85 70.97 48.99"/><polygon class="cls-5" points="70.97 48.78 70.97 48.78 70.97 48.64 70.97 48.78"/><polygon class="cls-3" points="70.97 48.78 70.97 48.78 70.97 48.64 70.97 48.78"/><polygon class="cls-5" points="70.97 48.64 70.97 48.64 70.97 48.5 70.97 48.64"/><polygon class="cls-3" points="70.97 48.64 70.97 48.64 70.97 48.5 70.97 48.64"/><polygon class="cls-5" points="70.97 48.44 70.97 48.44 70.97 48.29 70.97 48.44"/><polygon class="cls-3" points="70.97 48.44 70.97 48.44 70.97 48.29 70.97 48.44"/><polyline class="cls-5" points="70.97 48.22 70.59 48.16 70.97 48.09 70.97 48.16 70.97 48.22"/><polygon class="cls-3" points="70.97 48.22 70.59 48.16 70.97 48.09 70.97 48.16 70.97 48.22"/><polyline class="cls-5" points="70.59 48.09 70.59 48.01 70.59 47.95 70.97 48.01 70.59 48.09"/><polygon class="cls-3" points="70.59 48.09 70.59 48.02 70.59 47.95 70.97 48.02 70.59 48.09"/><polygon class="cls-5" points="70.59 47.95 70.59 47.95 70.59 47.81 70.59 47.95"/><polygon class="cls-3" points="70.59 47.95 70.59 47.95 70.59 47.81 70.59 47.95"/><polygon class="cls-5" points="70.2 47.87 70.2 47.87 70.2 47.74 70.2 47.87"/><polygon class="cls-3" points="70.2 47.87 70.2 47.87 70.2 47.74 70.2 47.87"/><polygon class="cls-5" points="69.83 47.74 69.83 47.74 69.83 47.6 69.83 47.74"/><polygon class="cls-3" points="69.83 47.74 69.83 47.74 69.83 47.6 69.83 47.74"/><polygon class="cls-5" points="69.83 47.74 69.83 47.74 69.83 47.6 69.83 47.74"/><polygon class="cls-3" points="69.83 47.74 69.83 47.74 69.83 47.6 69.83 47.74"/><polyline class="cls-5" points="69.83 47.74 69.44 47.66 69.83 47.6 69.83 47.66 69.83 47.74"/><polygon class="cls-3" points="69.83 47.74 69.44 47.67 69.83 47.6 69.83 47.67 69.83 47.74"/><path class="cls-5" d="M68.3,47.81a.62.62,0,0,1,.76-.07c.38.21.38.48,0,.76l.38.28c0-.15.38-.56,0-1,0-.21-.76-.49-1.52-.15l.38.15"/><path class="cls-3" d="M68.3,47.81a.62.62,0,0,1,.76-.07c.38.21.38.49,0,.77l.38.28c0-.14.38-.56,0-1,0-.21-.76-.49-1.52-.14Z"/><polygon class="cls-5" points="69.44 48.64 69.44 48.64 69.44 48.5 69.44 48.64"/><polygon class="cls-3" points="69.44 48.64 69.44 48.64 69.44 48.5 69.44 48.64"/><polygon class="cls-5" points="69.44 48.5 69.44 48.5 69.44 48.36 69.44 48.5"/><polygon class="cls-3" points="69.44 48.5 69.44 48.5 69.44 48.36 69.44 48.5"/><polyline class="cls-5" points="69.44 48.36 69.44 48.29 69.44 48.16 69.83 48.29 69.44 48.36"/><polygon class="cls-3" points="69.44 48.36 69.44 48.29 69.44 48.16 69.83 48.29 69.44 48.36"/><polygon class="cls-5" points="69.44 48.16 69.44 48.16 69.44 48.01 69.44 48.16"/><polygon class="cls-3" points="69.44 48.16 69.44 48.16 69.44 48.02 69.44 48.16"/><polygon class="cls-5" points="69.44 47.95 69.44 47.95 69.44 47.81 69.44 47.95"/><polygon class="cls-3" points="69.44 47.95 69.44 47.95 69.44 47.81 69.44 47.95"/><polygon class="cls-5" points="69.44 47.81 69.44 47.81 69.44 47.66 69.44 47.81"/><polygon class="cls-3" points="69.44 47.81 69.44 47.81 69.44 47.67 69.44 47.81"/><polygon class="cls-5" points="69.06 47.74 69.06 47.74 69.06 47.6 69.06 47.74"/><polygon class="cls-3" points="69.06 47.74 69.06 47.74 69.06 47.6 69.06 47.74"/><polygon class="cls-5" points="69.06 47.6 69.06 47.6 69.06 47.46 69.06 47.6"/><polygon class="cls-3" points="69.06 47.6 69.06 47.6 69.06 47.46 69.06 47.6"/><polygon class="cls-5" points="69.06 47.6 69.06 47.6 69.06 47.46 69.06 47.6"/><polygon class="cls-3" points="69.06 47.6 69.06 47.6 69.06 47.46 69.06 47.6"/><polygon class="cls-5" points="68.68 47.53 68.68 47.53 68.68 47.4 68.68 47.53"/><polygon class="cls-3" points="68.68 47.53 68.68 47.53 68.68 47.39 68.68 47.53"/><polyline class="cls-5" points="68.68 47.6 68.68 47.53 68.68 47.46 68.68 47.53 68.68 47.6"/><polygon class="cls-3" points="68.68 47.6 68.68 47.53 68.68 47.46 68.68 47.53 68.68 47.6"/><polygon class="cls-5" points="68.3 47.6 68.3 47.6 68.3 47.46 68.3 47.6"/><polygon class="cls-3" points="68.3 47.6 68.3 47.6 68.3 47.46 68.3 47.6"/><polygon class="cls-5" points="68.3 47.66 68.3 47.66 68.3 47.53 68.3 47.66"/><polygon class="cls-3" points="68.3 47.67 68.3 47.67 68.3 47.53 68.3 47.67"/><path class="cls-5" d="M69.83,50v.42H66.4V50a4,4,0,0,1,1.53-.21,9.11,9.11,0,0,1,1.9.21"/><path class="cls-3" d="M69.83,50v.42H66.4V50a3.89,3.89,0,0,1,1.53-.21A9.1,9.1,0,0,1,69.83,50Z"/><path class="cls-5" d="M67.92,50.66c1.14,0,1.9-.14,1.9-.28s-.77-.21-1.9-.21c-.76,0-1.53.07-1.53.21s.77.28,1.53.28"/><path class="cls-3" d="M67.92,50.66c1.14,0,1.9-.14,1.9-.28s-.77-.21-1.9-.21c-.76,0-1.53.06-1.53.21S67.16,50.66,67.92,50.66Z"/><path class="cls-1" d="M66.4,50.38a4.88,4.88,0,0,1,1.53-.14c1.14,0,1.52.07,1.52.14s-.38.21-1.52.21c-.76,0-1.53-.07-1.53-.21"/><path class="cls-5" d="M67.92,49.75a6.36,6.36,0,0,1,1.9.28v-.14a6.57,6.57,0,0,0-1.9-.21,8.63,8.63,0,0,0-1.9.21V50a9.07,9.07,0,0,1,1.9-.28"/><path class="cls-3" d="M67.92,49.76a6.31,6.31,0,0,1,1.9.28v-.14a6.84,6.84,0,0,0-1.9-.21,9.06,9.06,0,0,0-1.9.21V50A8.91,8.91,0,0,1,67.92,49.76Z"/><polyline class="cls-1" points="66.4 50.24 66.4 50.17 66.4 50.1 66.4 50.17 66.4 50.24"/><polyline class="cls-5" points="66.78 50.17 66.78 50.1 66.78 49.96 66.4 50.1 66.78 50.17"/><polyline class="cls-5" points="67.54 50.03 67.54 49.96 67.54 49.89 67.54 49.96 67.54 50.03"/><polyline class="cls-11" points="67.16 50.1 66.78 50.03 67.16 49.89 67.54 49.96 67.16 50.1"/><polyline class="cls-1" points="69.83 50.24 69.83 50.17 69.83 50.1 69.83 50.17 69.83 50.24"/><polygon class="cls-5" points="69.44 50.17 69.44 50.17 69.44 49.96 69.44 50.17"/><polygon class="cls-5" points="68.3 50.03 68.3 50.03 68.3 49.83 68.3 50.03"/><polyline class="cls-11" points="69.06 50.1 69.06 50.03 69.06 49.89 68.68 49.89 68.68 49.96 68.68 50.1 69.06 50.1"/><polyline class="cls-1" points="67.92 50.03 68.3 50.03 68.3 49.96 68.3 49.83 67.92 49.83 67.92 49.96 67.92 50.03"/><path class="cls-5" d="M68.3,48.71v-.62c0-.15,0-.63-.38-.63v1.25h.38"/><path class="cls-3" d="M68.3,48.71v-.62c0-.14,0-.63-.38-.63v1.25Z"/><path class="cls-5" d="M68.3,48.57v-.62l-.38-.35v1h.38"/><path class="cls-3" d="M68.3,48.57v-.62l-.38-.35v1Z"/><polygon class="cls-5" points="67.92 47.74 67.92 47.74 67.92 47.6 67.92 47.74"/><polygon class="cls-3" points="67.92 47.74 67.92 47.74 67.92 47.6 67.92 47.74"/><polygon class="cls-5" points="67.92 47.95 67.92 47.95 67.92 47.81 67.92 47.95"/><polygon class="cls-3" points="67.92 47.95 67.92 47.95 67.92 47.81 67.92 47.95"/><polygon class="cls-5" points="67.92 48.09 67.92 48.09 67.92 47.95 67.92 48.09"/><polygon class="cls-3" points="67.92 48.09 67.92 48.09 67.92 47.95 67.92 48.09"/><polyline class="cls-5" points="67.92 48.29 68.3 48.22 67.92 48.09 67.92 48.22 67.92 48.29"/><polygon class="cls-3" points="67.92 48.29 68.3 48.22 67.92 48.09 67.92 48.22 67.92 48.29"/><rect class="cls-5" x="67.92" y="48.36" width="0.38" height="0.28"/><rect class="cls-3" x="67.92" y="48.36" width="0.38" height="0.28"/><path class="cls-5" d="M67.92,49.48c.38.27.38.21.76.07,0,.28.38.14.38.07.38.28.77.21.77.14,0,.21.38.14.38-.07.38-.28.38-.42.77-.42l-.38-.21v.08s-.38,0-.38.13v0h-.38l.38.21h-.38l.38.07-.38.2v-.2l-.38.07v-.14l.38-.14V49.2l-.38-.15v-.34l-.38.08v.27l-.38.08.38.13-.38.07h.38l-.38.21v-.21l-.38.21s-.38-.15-.38-.35l.38.07.38-.13V49l-.38-.14v-.21l-.38-.07v.35l-.38-.06v.41l.38-.07v.35l-.38-.21-.38.21-.38-.21h.38v-.07l.38-.13-.38-.08V49h-.38v-.28l-.38.08.38.2-.38.06v.42l.38-.07v.21l-.38-.07-.38.2V49.2l-.38.07v-.13l-.38-.08v.21s.38.14.38.42c.38.21.38.28.76.07,0,.07.38.14.38-.14.38.07.38.21.76-.07,0,.14.38.2.38-.07"/><path class="cls-3" d="M67.92,49.48c.38.28.38.21.76.07,0,.28.38.14.38.07.38.28.77.21.77.14,0,.21.38.14.38-.07.38-.28.38-.42.77-.42l-.38-.21v.07s-.38,0-.38.14v0h-.38l.38.21h-.38l.38.07-.38.21v-.21l-.38.07v-.14l.38-.14V49.2l-.38-.14v-.35l-.38.07v.28l-.38.07.38.14-.38.07h.38l-.38.21v-.21l-.38.21s-.38-.14-.38-.34l.38.07.38-.14V49l-.38-.14v-.21l-.38-.07v.35l-.38-.06v.41l.38-.07v.34l-.38-.21-.38.21-.38-.21h.38v-.07l.38-.14-.38-.07V49h-.38v-.28l-.38.07.38.21-.38.07v.42l.38-.07v.21l-.38-.07-.38.21V49.2l-.38.07v-.14l-.38-.07v.21s.38.14.38.42c.38.21.38.28.76.07,0,.07.38.14.38-.14.38.07.38.21.76-.07,0,.14.38.21.38-.07"/><polyline class="cls-1" points="65.64 49.62 65.64 49.48 65.64 49.4 65.64 49.48 65.64 49.62"/><polyline class="cls-1" points="66.78 49.33 66.78 49.2 66.78 49.05 66.78 49.2 66.78 49.33"/><rect class="cls-1" x="67.92" y="48.92" width="0.38" height="0.28"/><polygon class="cls-5" points="66.02 49.62 66.02 49.62 66.02 49.48 66.02 49.62"/><polygon class="cls-3" points="66.02 49.62 66.02 49.62 66.02 49.48 66.02 49.62"/><polyline class="cls-5" points="67.54 49.4 67.54 49.27 67.54 49.2 67.54 49.27 67.54 49.4"/><polygon class="cls-3" points="67.54 49.41 67.54 49.27 67.54 49.2 67.54 49.27 67.54 49.41"/><rect class="cls-1" x="70.21" y="49.41" width="0.38" height="0.21"/><rect class="cls-3" x="70.21" y="49.41" width="0.38" height="0.21"/><polyline class="cls-1" points="69.44 49.33 69.06 49.2 69.44 49.05 69.44 49.2 69.44 49.33"/><polygon class="cls-5" points="69.83 49.62 69.83 49.62 69.83 49.48 69.83 49.62"/><polygon class="cls-3" points="69.83 49.62 69.83 49.62 69.83 49.48 69.83 49.62"/><polyline class="cls-5" points="68.68 49.4 68.68 49.27 68.68 49.2 68.68 49.27 68.68 49.4"/><polygon class="cls-3" points="68.68 49.41 68.68 49.27 68.68 49.2 68.68 49.27 68.68 49.41"/><path class="cls-5" d="M49.61,73.47c0,3.39-2.67,6.74-6.1,6.74a4.54,4.54,0,0,1-1.92-.35,7.42,7.42,0,0,1-4.19-7V64.63H49.61v8.84"/><path class="cls-3" d="M49.61,73.46c0,3.41-2.67,6.75-6.11,6.75a4.59,4.59,0,0,1-1.91-.35,7.41,7.41,0,0,1-4.19-7V64.63H49.61Z"/><path class="cls-1" d="M38.54,77.43A8.64,8.64,0,0,0,40.06,79V64.63H38.54v12.8"/><path class="cls-3" d="M38.54,77.43A8.8,8.8,0,0,0,40.06,79V64.63H38.54Z"/><path class="cls-1" d="M41.59,79.79a2.44,2.44,0,0,0,1.14.35V64.63H41.59V79.79"/><path class="cls-3" d="M41.59,79.79a2.44,2.44,0,0,0,1.14.35V64.63H41.59Z"/><path class="cls-1" d="M44.27,80.14a6.31,6.31,0,0,0,1.53-.35V64.63H44.27V80.14"/><path class="cls-3" d="M44.27,80.14a6.31,6.31,0,0,0,1.53-.35V64.63H44.27Z"/><path class="cls-1" d="M46.94,78.88a3.48,3.48,0,0,0,1.52-1.52V64.63H46.94V78.88"/><path class="cls-3" d="M46.94,78.88a3.48,3.48,0,0,0,1.52-1.52V64.63H46.94Z"/><path class="cls-1" d="M45.8,64.63c0-2.78,1.52-5.07,3.81-5.07s3.82,2.29,3.82,5.07-1.54,5.08-3.82,5.08-3.81-2.3-3.81-5.08"/><path class="cls-3" d="M45.8,64.63c0-2.78,1.52-5.07,3.81-5.07s3.82,2.29,3.82,5.07-1.54,5.08-3.82,5.08S45.8,67.41,45.8,64.63Z"/><path class="cls-12" d="M46.94,64.63c0-2.08,1.14-3.82,2.67-3.82s2.67,1.74,2.67,3.82-1.14,3.83-2.67,3.83-2.67-1.74-2.67-3.83"/><path class="cls-3" d="M46.94,64.63c0-2.08,1.14-3.83,2.67-3.83s2.67,1.74,2.67,3.83-1.14,3.82-2.67,3.82S46.94,66.72,46.94,64.63Z"/><path class="cls-5" d="M48.46,65.54c0-.35.39-.35.39-.28,0-.28-.39-.91,0-1.12s.38,0,.38.07c.38-.41,0-.83-.38-.56a1.6,1.6,0,0,0-.39-1.25,1.63,1.63,0,0,0-.38,1.25c-.38-.27-.76.15-.76.56a.54.54,0,0,1,.76-.07,1.43,1.43,0,0,1-.38,1.12c.38-.07.76-.07.76.28"/><path class="cls-3" d="M48.46,65.54c0-.35.39-.35.39-.28,0-.28-.39-.91,0-1.12s.38,0,.38.07c.38-.42,0-.84-.38-.56a1.61,1.61,0,0,0-.39-1.25,1.64,1.64,0,0,0-.38,1.25c-.38-.28-.76.14-.76.56a.54.54,0,0,1,.76-.07,1.42,1.42,0,0,1-.38,1.12C48.08,65.19,48.46,65.19,48.46,65.54Z"/><rect class="cls-5" x="47.7" y="64.5" width="1.14" height="0.35"/><rect class="cls-3" x="47.7" y="64.5" width="1.14" height="0.35"/><path class="cls-5" d="M50.74,65.54c0-.35-.38-.35-.38-.28,0-.28.38-.91,0-1.12,0-.28-.38,0-.38.07,0-.41,0-.83.76-.56a.83.83,0,0,1,0-1.25,1.61,1.61,0,0,1,.38,1.25c.38-.27.76.15.76.56,0-.07-.38-.35-.38-.07-.38.21,0,.83,0,1.12-.38-.07-.77-.07-.77.28"/><path class="cls-3" d="M50.74,65.54c0-.35-.38-.35-.38-.28,0-.28.38-.91,0-1.12,0-.28-.38,0-.38.07,0-.42,0-.84.76-.56a.84.84,0,0,1,0-1.25,1.63,1.63,0,0,1,.38,1.25c.38-.28.76.14.76.56,0-.07-.38-.35-.38-.07-.38.21,0,.84,0,1.12C51.13,65.19,50.74,65.19,50.74,65.54Z"/><rect class="cls-5" x="50.37" y="64.5" width="1.14" height="0.35"/><rect class="cls-3" x="50.37" y="64.5" width="1.14" height="0.35"/><path class="cls-5" d="M49.61,68c0-.35.38-.35.76-.28-.38-.28-.38-1-.38-1.18a.6.6,0,0,1,.76.14c0-.41-.38-.83-.76-.63,0-.27,0-.9-.38-1.18-.38.28-.38.91-.38,1.18-.38-.2-.77.21-.38.63,0-.07,0-.35.38-.14,0,.2,0,.9-.38,1.18.38-.06.76-.06.76.28"/><path class="cls-3" d="M49.61,68c0-.34.38-.34.76-.28-.38-.28-.38-1-.38-1.18a.6.6,0,0,1,.76.14c0-.41-.38-.83-.76-.63,0-.28,0-.9-.38-1.18-.38.28-.38.9-.38,1.18-.38-.2-.77.21-.38.63,0-.07,0-.35.38-.14,0,.21,0,.9-.38,1.18C49.22,67.7,49.61,67.7,49.61,68Z"/><rect class="cls-5" x="48.84" y="67" width="1.14" height="0.35"/><rect class="cls-3" x="48.84" y="67" width="1.14" height="0.35"/><polyline class="cls-13" points="56.48 53.09 56.86 52.95 56.48 52.74 56.48 52.95 56.48 53.09"/></svg>