<svg id="Layer_1" data-name="Layer 1" xmlns="http://www.w3.org/2000/svg" viewBox="0 0 168.4 110.74"><defs><style>.cls-1{fill:#dc241f;}.cls-2{fill:#0035ad;}.cls-3{fill:#ffd100;}</style></defs><title>malaysia-flag</title><g id="v"><rect id="t" class="cls-1" width="168.4" height="8.52"/><rect id="t-2" data-name="t" class="cls-1" y="17.04" width="168.4" height="8.52"/><rect id="t-3" data-name="t" class="cls-1" y="34.07" width="168.4" height="8.52"/><rect id="t-4" data-name="t" class="cls-1" y="51.11" width="168.4" height="8.52"/></g><g id="v-2" data-name="v"><rect id="t-5" data-name="t" class="cls-1" y="51.11" width="168.4" height="8.52"/><rect id="t-6" data-name="t" class="cls-1" y="68.15" width="168.4" height="8.52"/><rect id="t-7" data-name="t" class="cls-1" y="85.18" width="168.4" height="8.52"/><rect id="t-8" data-name="t" class="cls-1" y="102.22" width="168.4" height="8.52"/></g><rect class="cls-2" width="87.88" height="51.11"/><ellipse class="cls-3" cx="36.09" cy="25.56" rx="18.83" ry="19.17"/><ellipse class="cls-2" cx="40.28" cy="25.56" rx="16.74" ry="17.04"/><g id="s"><path id="h" class="cls-3" d="M61.2,25.91l9,3.55-9.64-.78,6.61,7.19-8.35-5,2.9,9.4-5.41-8.16-1.4,9.74L53,24Z" transform="translate(0 -0.36)"/><path id="h-2" data-name="h" class="cls-3" d="M61.2,25.91l9-3.55-9.64.78L67.19,16l-8.35,5,2.9-9.4-5.41,8.16-1.4-9.74L53,27.83Z" transform="translate(0 -0.36)"/></g><g id="s-2" data-name="s"><path id="h-3" data-name="h" class="cls-3" d="M48.65,25.91l-9,3.55,9.64-.78-6.61,7.19,8.36-5-2.9,9.4,5.41-8.16,1.4,9.74L56.81,24Z" transform="translate(0 -0.36)"/><path id="h-4" data-name="h" class="cls-3" d="M48.65,25.91l-9-3.55,9.64.78L42.65,16l8.36,5-2.9-9.4,5.41,8.16,1.4-9.74,1.88,17.89Z" transform="translate(0 -0.36)"/></g></svg>