<svg id="Calque_1" data-name="Calque 1" xmlns="http://www.w3.org/2000/svg" viewBox="0 0 52.2 70.42"><defs><style>.cls-1{fill:#cf0f0f}</style></defs><path class="cls-1" d="M63.79 29.89h-1.21v-2.45a2.39 2.39 0 0 0-2.38-2.38h-6.82v-.73a5.59 5.59 0 1 0-11.18 0v.73h-6.81A2.39 2.39 0 0 0 33 27.44v2.46h-1.22a10.16 10.16 0 0 0-10.09 9.85v39.3a10.11 10.11 0 0 0 10.1 10.1h32a10.11 10.11 0 0 0 10.1-10.09V40a10.12 10.12 0 0 0-10.1-10.11zm-28.92-2.45a.52.52 0 0 1 .52-.52h7.74a.93.93 0 0 0 .93-.93v-1.67a3.73 3.73 0 0 1 7.45 0V26a.93.93 0 0 0 .93.93h7.74a.52.52 0 0 1 .52.52v5a2.31 2.31 0 0 1-2.31 2.31H37.18a2.31 2.31 0 0 1-2.31-2.31zM72 79.06a8.24 8.24 0 0 1-8.23 8.23h-32a8.25 8.25 0 0 1-8.24-8.24V39.78a8.28 8.28 0 0 1 8.23-8H33v.67a4.18 4.18 0 0 0 4.17 4.17H58.4a4.18 4.18 0 0 0 4.17-4.17v-.67h1.21A8.25 8.25 0 0 1 72 40z" transform="translate(-21.69 -18.73)"/><path class="cls-1" d="M65.64 46.54H42.75a.93.93 0 1 0 0 1.86h22.89a.93.93 0 1 0 0-1.86zm0 13.18H42.75a.93.93 0 1 0 0 1.86h22.89a.93.93 0 1 0 0-1.86zm0 13.18H42.75a.93.93 0 1 0 0 1.86h22.89a.93.93 0 1 0 0-1.86zm-28.08-3.81h-7.62A.93.93 0 0 0 29 70v7.62a.93.93 0 0 0 .93.93h7.62a.93.93 0 0 0 .93-.93V70a.93.93 0 0 0-.92-.91zm-.93 7.62h-5.76V71h5.75zm.93-20.8h-7.62a.93.93 0 0 0-.93.93v7.62a.93.93 0 0 0 .93.93h7.62a.93.93 0 0 0 .93-.93v-7.62a.93.93 0 0 0-.93-.93zm-.93 7.62h-5.76v-5.75h5.75zm.93-20.79h-7.62a.93.93 0 0 0-.93.93v7.62a.93.93 0 0 0 .93.93h7.62a.93.93 0 0 0 .93-.93v-7.62a.93.93 0 0 0-.93-.93zm-.93 7.62h-5.76V44.6h5.75z" transform="translate(-21.69 -18.73)"/></svg>