<svg id="Layer_1" data-name="Layer 1" xmlns="http://www.w3.org/2000/svg" viewBox="0 0 168.45 112.32"><defs><style>.cls-1{fill:#e73b28;}.cls-1,.cls-2{stroke:#e73b28;stroke-width:0.05px;}.cls-2{fill:#fff;}</style></defs><title>hong-kong-flag</title><rect class="cls-1" x="0.02" y="0.02" width="168.4" height="112.27"/><path class="cls-2" d="M73.78,46.27A26,26,0,0,1,72,39.58c-.13-1.86-.13-3.75-.15-4.88a20,20,0,0,1,1-5.42,13.51,13.51,0,0,1,9-8.73A12,12,0,0,1,94,25.51c0,.14-.61-.21-.86-.34s-.38-.13-.92-.4A2.93,2.93,0,0,0,90,24.63a2.42,2.42,0,0,0-1,1.1,1.89,1.89,0,0,0-.36,1.34,5.47,5.47,0,0,0,.57,2.83A8.68,8.68,0,0,0,89.75,31a14.18,14.18,0,0,1,1.61,2.62,7.24,7.24,0,0,1,.7,3l.08,1.27a10.24,10.24,0,0,1-4.39,8.07c-.74.47-1.54,1.1-2.39,1.56a6.85,6.85,0,0,0-3,2.69A4.79,4.79,0,0,0,82,52.7a10,10,0,0,0,.87,3.87l.27.59a.38.38,0,0,1-.38-.13l-.44-.49a12.89,12.89,0,0,1-1.87-3.86,14,14,0,0,1-.77-4.31,20.63,20.63,0,0,1,.88-5.1,15.15,15.15,0,0,1,.79-2.43l0-.08c0-.08,0-.14,0-.2a.3.3,0,0,0-.42,0l0,.08a13.16,13.16,0,0,0-1.09,3.14,13.63,13.63,0,0,0-.59,5,15.69,15.69,0,0,0,.77,4.31,17.24,17.24,0,0,0,2,3.76l.33.53a.33.33,0,0,0,.14.2l.05,0c-.06.29-1.92-1-4.25-4.08a28.62,28.62,0,0,1-4.32-7.32" transform="translate(0.02 0.02)"/><polygon class="cls-1" points="82.62 35.17 82.83 37.69 85.26 38.37 82.93 39.35 83.04 41.87 81.39 39.96 79.02 40.84 80.33 38.68 78.76 36.7 81.22 37.28 82.62 35.17"/><path class="cls-2" d="M69.29,64.07A26,26,0,0,1,62.37,64c-1.83-.37-3.64-.89-4.74-1.17a20,20,0,0,1-5-2.41,13.51,13.51,0,0,1-6-11,12,12,0,0,1,8-10.35c.14,0-.36.53-.56.74s-.22.34-.63.78a2.93,2.93,0,0,0-.73,2.06,2.42,2.42,0,0,0,.78,1.3,1.89,1.89,0,0,0,1.19.71,5.47,5.47,0,0,0,2.88.22,8.66,8.66,0,0,0,1.17-.26,14.17,14.17,0,0,1,3-.84,7.24,7.24,0,0,1,3.09.14l1.25.26a10.23,10.23,0,0,1,6.58,6.4c.25.84.64,1.78.85,2.72a6.85,6.85,0,0,0,1.77,3.65,4.79,4.79,0,0,0,2.34,1,10,10,0,0,0,4,.21l.64-.1a.38.38,0,0,1-.23.33l-.59.29a12.88,12.88,0,0,1-4.23.76A14,14,0,0,1,72.89,59a20.63,20.63,0,0,1-4.68-2.22,15.17,15.17,0,0,1-2.13-1.42L66,55.28c-.07,0-.13-.05-.2,0a.3.3,0,0,0-.11.4l.07.06a13.16,13.16,0,0,0,2.73,1.9,13.63,13.63,0,0,0,4.7,1.93,15.69,15.69,0,0,0,4.36.42,17.23,17.23,0,0,0,4.15-.87l.59-.17a.33.33,0,0,0,.23-.08l0,0c.27.13-1.49,1.57-5.07,3A28.61,28.61,0,0,1,69.29,64" transform="translate(0.02 0.02)"/><polygon class="cls-1" points="60.98 52.61 63.46 53.08 64.77 50.92 65.09 53.43 67.55 54.01 65.26 55.08 65.47 57.6 63.74 55.76 61.41 56.73 62.63 54.52 60.98 52.61"/><path class="cls-2" d="M91.6,45.51a26,26,0,0,1,5.72-3.9c1.72-.74,3.49-1.36,4.56-1.75a20,20,0,0,1,5.44-.85,13.51,13.51,0,0,1,11.21,5.63,12,12,0,0,1-.67,13.09c-.12.08,0-.64,0-.92s0-.4.07-1a2.93,2.93,0,0,0-.58-2.1,2.42,2.42,0,0,0-1.38-.62,1.89,1.89,0,0,0-1.38.11,5.47,5.47,0,0,0-2.49,1.47,8.65,8.65,0,0,0-.81.89,14.18,14.18,0,0,1-1.95,2.38,7.25,7.25,0,0,1-2.62,1.65l-1.17.5a10.24,10.24,0,0,1-9.06-1.48c-.69-.54-1.54-1.09-2.26-1.74a6.85,6.85,0,0,0-3.54-2,4.79,4.79,0,0,0-2.5.51,10,10,0,0,0-3.37,2.1l-.47.45a.38.38,0,0,1,0-.4l.32-.58a12.88,12.88,0,0,1,3-3,14,14,0,0,1,3.81-2.15,20.64,20.64,0,0,1,5.11-.86,15.16,15.16,0,0,1,2.56-.06h.08c.07,0,.14,0,.17-.11a.3.3,0,0,0-.14-.39h-.09a13.16,13.16,0,0,0-3.32,0,13.63,13.63,0,0,0-5,1.11,15.69,15.69,0,0,0-3.81,2.14,17.24,17.24,0,0,0-2.9,3.08l-.39.48a.33.33,0,0,0-.14.2v.06c-.29,0,.32-2.14,2.45-5.36a28.62,28.62,0,0,1,5.48-6.49" transform="translate(0.02 0.02)"/><polygon class="cls-1" points="105.03 50.18 102.72 51.21 102.89 53.73 101.2 51.85 98.85 52.79 100.11 50.6 98.5 48.66 100.97 49.18 102.32 47.04 102.58 49.55 105.03 50.18"/><path class="cls-2" d="M84.67,73.27a26,26,0,0,1-2.16,6.58c-.91,1.63-1.95,3.2-2.55,4.16a20,20,0,0,1-3.8,4,13.51,13.51,0,0,1-12.32,2.36A12,12,0,0,1,56.4,79.56c0-.14.4.51.53.76s.25.32.55.83a2.93,2.93,0,0,0,1.74,1.31,2.42,2.42,0,0,0,1.47-.35,1.89,1.89,0,0,0,1-.92,5.47,5.47,0,0,0,1.08-2.68,8.7,8.7,0,0,0,.1-1.19,14.19,14.19,0,0,1,.1-3.07,7.24,7.24,0,0,1,1.07-2.9l.63-1.11A10.24,10.24,0,0,1,72.8,65.9c.87,0,1.89-.07,2.85,0a6.86,6.86,0,0,0,4-.58,4.79,4.79,0,0,0,1.67-1.92,10,10,0,0,0,1.4-3.71l.1-.64a.38.38,0,0,1,.25.32l.1.65a12.89,12.89,0,0,1-.55,4.26,14,14,0,0,1-1.72,4,20.62,20.62,0,0,1-3.53,3.79,15.15,15.15,0,0,1-2,1.6l-.07,0c0,.06-.09.11-.07.19a.3.3,0,0,0,.35.23l.08,0a13.15,13.15,0,0,0,2.63-2,13.63,13.63,0,0,0,3.26-3.89,15.7,15.7,0,0,0,1.72-4,17.24,17.24,0,0,0,.43-4.22v-.62a.33.33,0,0,0,0-.24l0-.05c.21-.21,1,1.89,1.32,5.74a28.62,28.62,0,0,1-.4,8.49" transform="translate(0.02 0.02)"/><polygon class="cls-1" points="71.22 77.77 72.43 75.54 70.76 73.64 73.25 74.1 74.54 71.93 74.88 74.44 77.34 75 75.06 76.09 75.29 78.6 73.55 76.77 71.22 77.77"/><path class="cls-2" d="M98.14,62.47a26,26,0,0,1,5.33,4.42c1.19,1.44,2.27,3,2.94,3.9a20,20,0,0,1,2.32,5,13.51,13.51,0,0,1-2.32,12.33,12,12,0,0,1-12.76,3c-.11-.09.62-.18.9-.22s.39-.12,1-.21a2.93,2.93,0,0,0,1.86-1.14,2.42,2.42,0,0,0,.22-1.5,1.89,1.89,0,0,0-.48-1.3,5.47,5.47,0,0,0-2.1-2,8.68,8.68,0,0,0-1.07-.53A14.18,14.18,0,0,1,91.11,83a7.24,7.24,0,0,1-2.31-2.06l-.8-1a10.23,10.23,0,0,1-1.07-9.12c.33-.81.62-1.78,1.05-2.65a6.85,6.85,0,0,0,.93-3.95A4.79,4.79,0,0,0,87.74,62a10,10,0,0,0-2.94-2.66L84.23,59a.38.38,0,0,1,.39-.11l.64.15A12.89,12.89,0,0,1,89,61.08a14,14,0,0,1,3.11,3.08,20.63,20.63,0,0,1,2.23,4.68,15.19,15.19,0,0,1,.76,2.44v.08c0,.06.07.12.15.13a.3.3,0,0,0,.34-.24v-.09A13.15,13.15,0,0,0,94.69,68a13.63,13.63,0,0,0-2.43-4.46,15.7,15.7,0,0,0-3.11-3.08,17.24,17.24,0,0,0-3.77-1.94l-.57-.24a.33.33,0,0,0-.23-.08h-.06c-.12-.27,2.15-.28,5.83.88a28.61,28.61,0,0,1,7.75,3.48" transform="translate(0.02 0.02)"/><polygon class="cls-1" points="97.39 76.66 95.76 74.73 93.38 75.58 94.72 73.44 93.17 71.44 95.63 72.05 97.05 69.96 97.23 72.48 99.65 73.19 97.31 74.14 97.39 76.66"/></svg>