<svg id="Calque_1" data-name="Calque 1" xmlns="http://www.w3.org/2000/svg" viewBox="0 0 396.97 95.81"><path d="M230.51 134.38c0 5.88-5.49 9.78-11.84 9.78h-11.14l4.47-14.94h11.9c5.06 0 6.64 2.55 6.64 5.15m92.12-12l-6.11 20.33a9.2 9.2 0 0 1-5.74 2.12c-4.24 0-6.89-2.22-6.89-5.83 0-9 10.74-15.23 18.74-16.62m111.39 0l-6.12 20.33a9.17 9.17 0 0 1-5.73 2.12c-4.24 0-6.89-2.22-6.89-5.83 0-9 10.74-15.23 18.74-16.62m-93.9-6.65c-15.18 0-26.16 1.21-35.89 4.87-10.84 4.14-17.49 12.29-17.49 20.62 0 9.4 12.29 11 19.32 11 8.43 0 13.73-.38 23.18-.38zm-47 .29c-3.37-.1-19.27-1-27.75 4.09-5.3 3.13-6.94 7-8.67 12.73l-5.68 19h15.51l6.17-20.57c2.84-9.49 15-9.11 18.55-9.11zm100.22 12.14c2.94-9.83-3.57-12.43-18.36-12.43-11.86 0-24.09 1.21-28.81 17.11l-5.64 19H356l6.7-22.35c1.11-3.67 3.13-7.66 9.25-7.66 6.89 0 7.13 2.17 5.93 6.26l-7.08 23.75h15.47zm97.37-11.61H478.4l3.28-11.28h-15.37l-10.85 35.95c-2.65 8.81 5.68 11.23 15.61 11.23a39.4 39.4 0 0 0 11.52-1.54l2.26-7.42a40.2 40.2 0 0 1-8.19.92c-5 0-5.83-2.7-4.09-8.58l3.9-13.25h12.43zm-36.14-11.27h-15.46l-3.33 11.08a75.11 75.11 0 0 0-20.19 4.24c-10.84 4.14-17.49 12.29-17.49 20.62 0 9.4 12.28 11 19.32 11 8.44 0 13.78-.38 23.23-.38zm-203.61 9c0-6-5.39-9-19.47-9h-28.23l-14.06 46.55h26.83c20.77 0 32-5.83 32-16.19 0-5-3.81-8.91-9.35-10.07 5.73-1.2 12.29-5 12.29-11.32m-16.81 1.59c0 4.62-6.26 7.17-15.14 7.17h-5.2l2.42-8c.81-2.8 3.61-3.23 6.16-3.23h6.31c3.76 0 5.45 1.69 5.45 4" transform="translate(-93.77 -105.27)" fill="#e4003e"/><path d="M93.77 198.48v-23.3h5.35q2.71 0 3.71 1.65a10 10 0 0 1 1.05 4.92v.49a11.17 11.17 0 0 1-1 5.26 3.8 3.8 0 0 1-3.66 1.79h-1.91v9.19zm3.55-12.11h1.22a1.4 1.4 0 0 0 1.46-.87 10.6 10.6 0 0 0 .34-3.3v-.45a9 9 0 0 0-.36-3 1.37 1.37 0 0 0-1.41-.89h-1.26zm13.63 12.35q-2.81 0-3.89-1.68a9 9 0 0 1-1.09-4.86v-7.43q0-6.37 5-6.37t5 6.37v7.43q0 5-2.56 6.1a5.88 5.88 0 0 1-2.46.44zm0-2.83a1.11 1.11 0 0 0 1.12-.72 5.93 5.93 0 0 0 .3-2.15v-8.88a6 6 0 0 0-.3-2.18 1.24 1.24 0 0 0-2.25 0 6 6 0 0 0-.3 2.19V193q0 2.18.72 2.67a1.27 1.27 0 0 0 .71.22zm11.56 2.84q-3.53 0-3.53-4.75v-15.36h3.52v14.81a4.14 4.14 0 0 0 .3 1.82 1.16 1.16 0 0 0 1.14.59q1.6 0 1.6-2.38v-14.84H129v19.86h-3.51v-2.07a3.06 3.06 0 0 1-2.98 2.32zm16.94-20.35a17.61 17.61 0 0 1 .05 2.22v.74a6.24 6.24 0 0 0-2.08.36 2.18 2.18 0 0 0-1.34 1v15.75h-3.53v-19.83h3.53v2.21a3.35 3.35 0 0 1 1.21-1.81 3.54 3.54 0 0 1 2.16-.64zm10.67 20.23a3.32 3.32 0 0 1-2.49-.71 3.69 3.69 0 0 1-.64-2.45v-13.87h-1.62V179H147v-3.87h3.51V179h1.93v2.54h-1.93v13.26q0 .7.36.9a4.17 4.17 0 0 0 1.64.2v2.67zm9.61.11q-2.81 0-3.89-1.68a9 9 0 0 1-1.09-4.86v-7.43q0-6.37 5-6.37t5 6.37v7.43q0 5-2.56 6.1a5.88 5.88 0 0 1-2.46.44zm0-2.83a1.11 1.11 0 0 0 1.12-.72 5.93 5.93 0 0 0 .3-2.15v-8.88a6 6 0 0 0-.3-2.18 1.24 1.24 0 0 0-2.25 0 6 6 0 0 0-.3 2.19V193q0 2.18.72 2.67a1.27 1.27 0 0 0 .71.22zm11.56 2.84q-3.53 0-3.53-4.75v-15.36h3.52v14.81a4.14 4.14 0 0 0 .3 1.82 1.16 1.16 0 0 0 1.14.59q1.6 0 1.6-2.38v-14.84h3.49v19.86h-3.51v-2.07a3.06 3.06 0 0 1-3.01 2.32zm9.37-15.47q0-4.87 4.69-4.87a4.13 4.13 0 0 1 3.41 1.33 7.09 7.09 0 0 1 1.08 4.43v1.08h-3.14v-1.31a5 5 0 0 0-.3-2 1 1 0 0 0-1-.66 1.27 1.27 0 0 0-1 .41 2.24 2.24 0 0 0-.34 1.4 4 4 0 0 0 1.4 2.93l1.88 1.71a8 8 0 0 1 2.9 5.94 5.52 5.52 0 0 1-1.15 3.81 4.59 4.59 0 0 1-3.57 1.27 4.39 4.39 0 0 1-3.57-1.38 6.91 6.91 0 0 1-1.15-4.44v-1.28h3.2v1.6q0 2.65 1.35 2.65a1.16 1.16 0 0 0 1-.47 3 3 0 0 0 .32-1.59 5 5 0 0 0-1.83-3.68l-.85-.77-.93-.85a6.91 6.91 0 0 1-2.4-5.26zm17.04 15.22V175h3.5v23.5zm11.66.24q-3.35 0-4.32-2.55a12.49 12.49 0 0 1-.61-4.29v-7.4q0-6.09 5.07-6.09 2.7 0 3.74 1.6a8.36 8.36 0 0 1 1 4.55v4.25H208v3.91a5.93 5.93 0 0 0 .36 2.63 1.19 1.19 0 0 0 1.07.56q.71 0 .93-.33a2.71 2.71 0 0 0 .41-1.19q.05-.61.05-1.67v-1.75h3.47V192a12.58 12.58 0 0 1-.42 3.88 4.42 4.42 0 0 1-1 1.71 4.85 4.85 0 0 1-3.51 1.13zm-1.4-12h2.83v-2.52a7.51 7.51 0 0 0-.26-2.34 1 1 0 0 0-1.05-.71q-1.38 0-1.48 2.1v1zm8.79-3.46q0-4.87 4.69-4.87a4.13 4.13 0 0 1 3.41 1.33 7.09 7.09 0 0 1 1.08 4.43v1.08h-3.14v-1.31a5 5 0 0 0-.3-2 1 1 0 0 0-1-.66 1.27 1.27 0 0 0-1 .41 2.24 2.24 0 0 0-.34 1.4 4 4 0 0 0 1.4 2.93l1.88 1.71a8 8 0 0 1 2.9 5.94 5.51 5.51 0 0 1-1.15 3.81 4.59 4.59 0 0 1-3.57 1.27 4.39 4.39 0 0 1-3.57-1.38 6.91 6.91 0 0 1-1.15-4.44v-1.28h3.3v1.6q0 2.65 1.35 2.65a1.16 1.16 0 0 0 1-.47 3 3 0 0 0 .32-1.59 5 5 0 0 0-1.83-3.68l-.85-.77-.93-.85a6.91 6.91 0 0 1-2.5-5.26zm18.19 17.82h-1a1.94 1.94 0 0 1-1.1-.23v-2.42a1.82 1.82 0 0 0 .6 0 .78.78 0 0 0 .83-.89v-18.92h3.51v18.81a4.23 4.23 0 0 1-.73 2.71 2.59 2.59 0 0 1-2.11.94zm-.75-24.28v-3h3.53v3zm11.71 21.92q-2.81 0-3.89-1.68a9 9 0 0 1-1.09-4.86v-7.43q0-6.37 5-6.37t5 6.37v7.43q0 5-2.56 6.1a5.88 5.88 0 0 1-2.46.44zm0-2.83a1.11 1.11 0 0 0 1.12-.72 5.93 5.93 0 0 0 .3-2.15v-8.88a6 6 0 0 0-.3-2.18 1.24 1.24 0 0 0-2.25 0 6 6 0 0 0-.3 2.19V193q0 2.18.72 2.67a1.27 1.27 0 0 0 .71.22zm11.56 2.84q-3.53 0-3.53-4.75v-15.36h3.52v14.81a4.14 4.14 0 0 0 .3 1.82 1.16 1.16 0 0 0 1.14.59q1.6 0 1.6-2.38v-14.84H264v19.86h-3.51v-2.07a3.06 3.06 0 0 1-3.03 2.32zm16.95-20.35a17.61 17.61 0 0 1 .05 2.22v.74a6.24 6.24 0 0 0-2.08.36 2.18 2.18 0 0 0-1.34 1v15.75h-3.53v-19.83H271v2.21a3.35 3.35 0 0 1 1.21-1.81 3.54 3.54 0 0 1 2.2-.64zm1.53 4.88q0-4.87 4.69-4.87a4.13 4.13 0 0 1 3.41 1.33 7.09 7.09 0 0 1 1.08 4.43v1.08H282v-1.31a5 5 0 0 0-.3-2 1 1 0 0 0-1-.66 1.27 1.27 0 0 0-1 .41 2.24 2.24 0 0 0-.34 1.4 4 4 0 0 0 1.4 2.93l1.88 1.71a8 8 0 0 1 2.9 5.94 5.51 5.51 0 0 1-1.15 3.81 4.59 4.59 0 0 1-3.57 1.27 4.39 4.39 0 0 1-3.57-1.38 6.91 6.91 0 0 1-1.15-4.44v-1.28h3.3v1.6q0 2.65 1.35 2.65a1.16 1.16 0 0 0 1-.47 3 3 0 0 0 .32-1.59 5 5 0 0 0-1.83-3.68l-.85-.77-.93-.85a6.91 6.91 0 0 1-2.52-5.26zm21.63 15.46q-3.35 0-4.32-2.55a12.49 12.49 0 0 1-.61-4.29v-7.4q0-6.09 5.07-6.09 2.7 0 3.74 1.6a8.36 8.36 0 0 1 1 4.55v4.25h-6.31v3.91a5.93 5.93 0 0 0 .36 2.63 1.19 1.19 0 0 0 1.07.56q.71 0 .93-.33a2.71 2.71 0 0 0 .41-1.19q.05-.61.05-1.67v-1.75h3.47V192a12.58 12.58 0 0 1-.42 3.88 4.42 4.42 0 0 1-1 1.71 4.85 4.85 0 0 1-3.44 1.13zm-1.4-12H299v-2.52a7.51 7.51 0 0 0-.26-2.34 1 1 0 0 0-1.05-.71q-1.38 0-1.48 2.1v1zm13.07 11.89a3.32 3.32 0 0 1-2.49-.71 3.69 3.69 0 0 1-.64-2.45v-13.87h-1.61V179h1.62v-3.87h3.51V179h1.93v2.54h-1.93v13.26q0 .7.36.9a4.17 4.17 0 0 0 1.64.2v2.67zm22.83-.13v-15.25q0-2-1.34-2a1.49 1.49 0 0 0-1.24.56 2.54 2.54 0 0 0-.44 1.6v15.07h-3.51V183.2q0-1.95-1.3-1.95a1.44 1.44 0 0 0-1.29.66 3 3 0 0 0-.43 1.69v14.88H319v-19.86h3.51v2.16a3.3 3.3 0 0 1 1.1-1.75 3.21 3.21 0 0 1 2.08-.64 2.86 2.86 0 0 1 2.94 2 3.57 3.57 0 0 1 3.38-2 3 3 0 0 1 2.71 1.24 6.51 6.51 0 0 1 .84 3.64v15.21zm11.51.24q-3.35 0-4.32-2.55a12.49 12.49 0 0 1-.61-4.29v-7.4q0-6.09 5.07-6.09 2.7 0 3.74 1.6a8.36 8.36 0 0 1 1 4.55v4.25h-6.31v3.91a5.93 5.93 0 0 0 .36 2.63 1.19 1.19 0 0 0 1.07.56q.71 0 .93-.33a2.71 2.71 0 0 0 .41-1.19q.05-.61.05-1.67v-1.75h3.47V192a12.58 12.58 0 0 1-.42 3.88 4.42 4.42 0 0 1-1 1.71 4.85 4.85 0 0 1-3.44 1.13zm-4.45-21.51l2.5-4.46h4l2.49 4.46h-3.35l-1.14-3.12-1.14 3.12zm3 9.53H345v-2.54a7.51 7.51 0 0 0-.26-2.34 1 1 0 0 0-1.05-.71q-1.38 0-1.48 2.1v1zm22.55 11.74v-15.25q0-2-1.34-2a1.49 1.49 0 0 0-1.24.56 2.54 2.54 0 0 0-.44 1.6v15.07h-3.51V183.2q0-1.95-1.3-1.95a1.44 1.44 0 0 0-1.29.66 3 3 0 0 0-.43 1.69v14.88h-3.51v-19.86h3.51v2.16a3.3 3.3 0 0 1 1.1-1.75 3.21 3.21 0 0 1 2.08-.64 2.86 2.86 0 0 1 2.94 2 3.57 3.57 0 0 1 3.38-2 3 3 0 0 1 2.71 1.24 6.51 6.51 0 0 1 .84 3.64v15.21zm11.5.24q-3.35 0-4.32-2.55a12.49 12.49 0 0 1-.61-4.29v-7.4q0-6.09 5.07-6.09 2.7 0 3.74 1.6a8.36 8.36 0 0 1 1 4.55v4.25h-6.31v3.91a5.93 5.93 0 0 0 .36 2.63 1.19 1.19 0 0 0 1.07.56q.71 0 .93-.33a2.7 2.7 0 0 0 .41-1.19q.05-.61.05-1.67v-1.75h3.47V192a12.59 12.59 0 0 1-.42 3.88 4.42 4.42 0 0 1-1 1.71 4.85 4.85 0 0 1-3.44 1.13zm-1.4-12h2.83v-2.52a7.52 7.52 0 0 0-.26-2.34 1 1 0 0 0-1.05-.71q-1.38 0-1.48 2.1v1zm14.35 11.76V175h3.5v23.5zm11.66.24q-3.35 0-4.32-2.55a12.49 12.49 0 0 1-.61-4.29v-7.4q0-6.09 5.07-6.09 2.7 0 3.74 1.6a8.36 8.36 0 0 1 1 4.55v4.25h-6.27v3.91a5.93 5.93 0 0 0 .36 2.63 1.19 1.19 0 0 0 1.07.56q.71 0 .93-.33a2.71 2.71 0 0 0 .41-1.19q.05-.61.05-1.67v-1.75h3.47V192a12.59 12.59 0 0 1-.42 3.88 4.42 4.42 0 0 1-1 1.71 4.85 4.85 0 0 1-3.48 1.13zm-1.4-12h2.83v-2.52a7.51 7.51 0 0 0-.26-2.34 1 1 0 0 0-1.05-.71q-1.38 0-1.48 2.1v1zm8.79-3.46q0-4.87 4.69-4.87a4.13 4.13 0 0 1 3.41 1.33 7.09 7.09 0 0 1 1.08 4.43v1.08h-3.14v-1.31a5 5 0 0 0-.3-2 1 1 0 0 0-1-.66 1.27 1.27 0 0 0-1 .41 2.24 2.24 0 0 0-.34 1.4 4 4 0 0 0 1.4 2.93l1.88 1.71a8 8 0 0 1 2.9 5.94 5.51 5.51 0 0 1-1.15 3.81 4.59 4.59 0 0 1-3.57 1.27 4.39 4.39 0 0 1-3.57-1.38 6.91 6.91 0 0 1-1.15-4.44v-1.28h3.3v1.6q0 2.65 1.35 2.65a1.16 1.16 0 0 0 1-.47 3 3 0 0 0 .32-1.59 5 5 0 0 0-1.83-3.68l-.85-.77-.93-.85a6.91 6.91 0 0 1-2.5-5.26zm20.31 15.42a3 3 0 0 1-2.78-1.4 8.08 8.08 0 0 1-.86-4V192a5.07 5.07 0 0 1 1.38-3.85 9 9 0 0 1 3-1.67l1.07-.4 1-.36V184a6.82 6.82 0 0 0-.23-2.19 1 1 0 0 0-1.06-.58 1.09 1.09 0 0 0-1.11.61 5.39 5.39 0 0 0-.28 2.05v.89h-3.47v-.6a7.39 7.39 0 0 1 1.05-4.3q1.05-1.48 3.73-1.48a4.5 4.5 0 0 1 3.81 1.48 7.28 7.28 0 0 1 1.13 4.45v14.16h-3.53v-2a3.11 3.11 0 0 1-1 1.54 2.71 2.71 0 0 1-1.85.65zm2.77-11a6.77 6.77 0 0 0-2.25 1.4 3 3 0 0 0-.58 2.05v2.13a4.92 4.92 0 0 0 .29 2 1 1 0 0 0 .95.6 1.41 1.41 0 0 0 1.07-.44 2 2 0 0 0 .52-1zm10.31 11.05q-3.53 0-3.53-4.75v-15.36h3.52v14.81a4.14 4.14 0 0 0 .3 1.82 1.16 1.16 0 0 0 1.14.59q1.6 0 1.6-2.38v-14.84h3.49v19.86h-3.49v-2.07a3.06 3.06 0 0 1-3.03 2.32zm13.65-.12a3.32 3.32 0 0 1-2.49-.71 3.69 3.69 0 0 1-.64-2.45v-13.87h-1.62V179h1.62v-3.87h3.51V179h1.93v2.54h-1.93v13.26q0 .7.36.9a4.17 4.17 0 0 0 1.64.2v2.67zm11.83-20.23a17.62 17.62 0 0 1 .05 2.22v.74a6.24 6.24 0 0 0-2.08.36 2.18 2.18 0 0 0-1.34 1v15.75h-3.53v-19.83h3.53v2.21a3.35 3.35 0 0 1 1.21-1.81 3.54 3.54 0 0 1 2.16-.64zm6.78 20.34q-3.35 0-4.32-2.55a12.49 12.49 0 0 1-.61-4.29v-7.4q0-6.09 5.07-6.09 2.7 0 3.74 1.6a8.36 8.36 0 0 1 1 4.55v4.25h-6.31v3.91a5.93 5.93 0 0 0 .36 2.63 1.19 1.19 0 0 0 1.07.56q.71 0 .93-.33a2.71 2.71 0 0 0 .41-1.19q.05-.61.05-1.67v-1.75h3.47V192a12.59 12.59 0 0 1-.42 3.88 4.42 4.42 0 0 1-1 1.71 4.85 4.85 0 0 1-3.44 1.13zm-1.4-12h2.83v-2.52a7.51 7.51 0 0 0-.26-2.34 1 1 0 0 0-1.05-.71q-1.38 0-1.48 2.1v1zm8.79-3.46q0-4.87 4.69-4.87a4.13 4.13 0 0 1 3.41 1.33 7.09 7.09 0 0 1 1.08 4.43v1.08h-3.14v-1.31a5 5 0 0 0-.3-2 1 1 0 0 0-1-.66 1.27 1.27 0 0 0-1 .41 2.24 2.24 0 0 0-.34 1.4A4 4 0 0 0 486 186l1.88 1.71a8 8 0 0 1 2.9 5.94 5.52 5.52 0 0 1-1.15 3.81 4.59 4.59 0 0 1-3.57 1.27 4.39 4.39 0 0 1-3.57-1.38 6.91 6.91 0 0 1-1.15-4.44v-1.28h3.3v1.6q0 2.65 1.35 2.65a1.16 1.16 0 0 0 1-.47 3 3 0 0 0 .32-1.59 5 5 0 0 0-1.83-3.68l-.85-.77-.93-.85a6.91 6.91 0 0 1-2.48-5.26z" transform="translate(-93.77 -105.27)" fill="#181716"/></svg>